<?xml version="1.0" encoding="UTF-8" standalone="no"?>
<!DOCTYPE svg PUBLIC "-//W3C//DTD SVG 1.1//EN"
 "http://www.w3.org/Graphics/SVG/1.1/DTD/svg11.dtd">
<!-- Generated by graphviz version 14.0.2 (20251019.1705)
 -->
<!-- Title: snakemake_dag Pages: 1 -->
<svg width="901pt" height="1196pt"
 viewBox="0.00 0.00 901.00 1196.00" xmlns="http://www.w3.org/2000/svg" xmlns:xlink="http://www.w3.org/1999/xlink">
<g id="graph0" class="graph" transform="scale(1 1) rotate(0) translate(4 1192)">
<title>snakemake_dag</title>
<polygon fill="white" stroke="none" points="-4,4 -4,-1192 897.25,-1192 897.25,4 -4,4"/>
<!-- 0 -->
<g id="node1" class="node">
<title>0</title>
<path fill="none" stroke="#d85656" stroke-width="2" d="M476.88,-36C476.88,-36 446.88,-36 446.88,-36 440.88,-36 434.88,-30 434.88,-24 434.88,-24 434.88,-12 434.88,-12 434.88,-6 440.88,0 446.88,0 446.88,0 476.88,0 476.88,0 482.88,0 488.88,-6 488.88,-12 488.88,-12 488.88,-24 488.88,-24 488.88,-30 482.88,-36 476.88,-36"/>
<text xml:space="preserve" text-anchor="middle" x="461.88" y="-14.12" font-family="sans" font-size="10.00">all</text>
</g>
<!-- 1 -->
<g id="node2" class="node">
<title>1</title>
<path fill="none" stroke="#8fd856" stroke-width="2" d="M91.75,-108C91.75,-108 12,-108 12,-108 6,-108 0,-102 0,-96 0,-96 0,-84 0,-84 0,-78 6,-72 12,-72 12,-72 91.75,-72 91.75,-72 97.75,-72 103.75,-78 103.75,-84 103.75,-84 103.75,-96 103.75,-96 103.75,-102 97.75,-108 91.75,-108"/>
<text xml:space="preserve" text-anchor="middle" x="51.88" y="-86.12" font-family="sans" font-size="10.00">generate_dag_graph</text>
</g>
<!-- 1&#45;&gt;0 -->
<g id="edge6" class="edge">
<title>1&#45;&gt;0</title>
<path fill="none" stroke="grey" stroke-width="2" d="M104.72,-74.9C109.16,-73.86 113.59,-72.88 117.88,-72 226.74,-49.65 356.73,-32.06 421.31,-23.92"/>
<polygon fill="grey" stroke="grey" stroke-width="2" points="421.57,-27.42 431.06,-22.71 420.7,-20.47 421.57,-27.42"/>
</g>
<!-- 2 -->
<g id="node3" class="node">
<title>2</title>
<path fill="none" stroke="#d89c56" stroke-width="2" d="M383,-1188C383,-1188 310.75,-1188 310.75,-1188 304.75,-1188 298.75,-1182 298.75,-1176 298.75,-1176 298.75,-1164 298.75,-1164 298.75,-1158 304.75,-1152 310.75,-1152 310.75,-1152 383,-1152 383,-1152 389,-1152 395,-1158 395,-1164 395,-1164 395,-1176 395,-1176 395,-1182 389,-1188 383,-1188"/>
<text xml:space="preserve" text-anchor="middle" x="346.88" y="-1166.12" font-family="sans" font-size="10.00">clean_plis_training</text>
</g>
<!-- 2&#45;&gt;0 -->
<g id="edge11" class="edge">
<title>2&#45;&gt;0</title>
<path fill="none" stroke="grey" stroke-width="2" d="M297.82,-1159.33C234.36,-1143.64 131.88,-1106.07 131.88,-1027 131.88,-1027 131.88,-1027 131.88,-161 131.88,-36.4 332.85,-19.79 421.12,-18.51"/>
<polygon fill="grey" stroke="grey" stroke-width="2" points="421.02,-22.01 431,-18.44 420.97,-15.01 421.02,-22.01"/>
</g>
<!-- 3 -->
<g id="node4" class="node">
<title>3</title>
<path fill="none" stroke="#d88556" stroke-width="2" d="M389.38,-1116C389.38,-1116 304.38,-1116 304.38,-1116 298.38,-1116 292.38,-1110 292.38,-1104 292.38,-1104 292.38,-1092 292.38,-1092 292.38,-1086 298.38,-1080 304.38,-1080 304.38,-1080 389.38,-1080 389.38,-1080 395.38,-1080 401.38,-1086 401.38,-1092 401.38,-1092 401.38,-1104 401.38,-1104 401.38,-1110 395.38,-1116 389.38,-1116"/>
<text xml:space="preserve" text-anchor="middle" x="346.88" y="-1094.12" font-family="sans" font-size="10.00">build_customer_meta</text>
</g>
<!-- 2&#45;&gt;3 -->
<g id="edge15" class="edge">
<title>2&#45;&gt;3</title>
<path fill="none" stroke="grey" stroke-width="2" d="M346.88,-1151.34C346.88,-1144.75 346.88,-1137.08 346.88,-1129.67"/>
<polygon fill="grey" stroke="grey" stroke-width="2" points="350.38,-1129.93 346.88,-1119.93 343.38,-1129.93 350.38,-1129.93"/>
</g>
<!-- 4 -->
<g id="node5" class="node">
<title>4</title>
<path fill="none" stroke="#78d856" stroke-width="2" d="M318,-972C318,-972 209.75,-972 209.75,-972 203.75,-972 197.75,-966 197.75,-960 197.75,-960 197.75,-948 197.75,-948 197.75,-942 203.75,-936 209.75,-936 209.75,-936 318,-936 318,-936 324,-936 330,-942 330,-948 330,-948 330,-960 330,-960 330,-966 324,-972 318,-972"/>
<text xml:space="preserve" text-anchor="middle" x="263.88" y="-950.12" font-family="sans" font-size="10.00">generate_exploration_plots</text>
</g>
<!-- 2&#45;&gt;4 -->
<g id="edge17" class="edge">
<title>2&#45;&gt;4</title>
<path fill="none" stroke="grey" stroke-width="2" d="M317.08,-1151.15C304.76,-1142.18 291.58,-1130.19 283.88,-1116 261.55,-1074.88 259.77,-1019.34 261.28,-985.4"/>
<polygon fill="grey" stroke="grey" stroke-width="2" points="264.76,-985.91 261.87,-975.72 257.77,-985.49 264.76,-985.91"/>
</g>
<!-- 5 -->
<g id="node6" class="node">
<title>5</title>
<path fill="none" stroke="#61d856" stroke-width="2" d="M490,-1044C490,-1044 369.75,-1044 369.75,-1044 363.75,-1044 357.75,-1038 357.75,-1032 357.75,-1032 357.75,-1020 357.75,-1020 357.75,-1014 363.75,-1008 369.75,-1008 369.75,-1008 490,-1008 490,-1008 496,-1008 502,-1014 502,-1020 502,-1020 502,-1032 502,-1032 502,-1038 496,-1044 490,-1044"/>
<text xml:space="preserve" text-anchor="middle" x="429.88" y="-1022.12" font-family="sans" font-size="10.00">prepare_split_customer_meta</text>
</g>
<!-- 2&#45;&gt;5 -->
<g id="edge19" class="edge">
<title>2&#45;&gt;5</title>
<path fill="none" stroke="grey" stroke-width="2" d="M376.24,-1151.15C388.73,-1142.11 402.35,-1130.07 410.88,-1116 421.51,-1098.45 426.24,-1075.8 428.33,-1057.74"/>
<polygon fill="grey" stroke="grey" stroke-width="2" points="431.79,-1058.27 429.19,-1048 424.82,-1057.65 431.79,-1058.27"/>
</g>
<!-- 11 -->
<g id="node12" class="node">
<title>11</title>
<path fill="none" stroke="#56d8d0" stroke-width="2" d="M649.62,-972C649.62,-972 536.12,-972 536.12,-972 530.12,-972 524.12,-966 524.12,-960 524.12,-960 524.12,-948 524.12,-948 524.12,-942 530.12,-936 536.12,-936 536.12,-936 649.62,-936 649.62,-936 655.62,-936 661.62,-942 661.62,-948 661.62,-948 661.62,-960 661.62,-960 661.62,-966 655.62,-972 649.62,-972"/>
<text xml:space="preserve" text-anchor="middle" x="592.88" y="-950.12" font-family="sans" font-size="10.00">split_plis_training_validation</text>
</g>
<!-- 2&#45;&gt;11 -->
<g id="edge32" class="edge">
<title>2&#45;&gt;11</title>
<path fill="none" stroke="grey" stroke-width="2" d="M380.35,-1151.03C418.93,-1129.22 482.8,-1089.65 527.88,-1044 545.94,-1025.71 562.94,-1002.1 575.03,-983.8"/>
<polygon fill="grey" stroke="grey" stroke-width="2" points="577.93,-985.76 580.41,-975.46 572.04,-981.97 577.93,-985.76"/>
</g>
<!-- 3&#45;&gt;0 -->
<g id="edge2" class="edge">
<title>3&#45;&gt;0</title>
<path fill="none" stroke="grey" stroke-width="2" d="M291.84,-1079.05C239.88,-1058.24 169.88,-1018.43 169.88,-955 169.88,-955 169.88,-955 169.88,-161 169.88,-50.69 340.48,-26.05 420.88,-20.56"/>
<polygon fill="grey" stroke="grey" stroke-width="2" points="421.08,-24.06 430.86,-19.97 420.66,-17.07 421.08,-24.06"/>
</g>
<!-- 3&#45;&gt;5 -->
<g id="edge18" class="edge">
<title>3&#45;&gt;5</title>
<path fill="none" stroke="grey" stroke-width="2" d="M367.82,-1079.34C377.18,-1071.44 388.42,-1061.96 398.74,-1053.26"/>
<polygon fill="grey" stroke="grey" stroke-width="2" points="400.95,-1055.98 406.33,-1046.85 396.43,-1050.62 400.95,-1055.98"/>
</g>
<!-- 7 -->
<g id="node8" class="node">
<title>7</title>
<path fill="none" stroke="#d8b456" stroke-width="2" d="M533.88,-684C533.88,-684 427.88,-684 427.88,-684 421.88,-684 415.88,-678 415.88,-672 415.88,-672 415.88,-660 415.88,-660 415.88,-654 421.88,-648 427.88,-648 427.88,-648 533.88,-648 533.88,-648 539.88,-648 545.88,-654 545.88,-660 545.88,-660 545.88,-672 545.88,-672 545.88,-678 539.88,-684 533.88,-684"/>
<text xml:space="preserve" text-anchor="middle" x="480.88" y="-662.12" font-family="sans" font-size="10.00">engineer_features_derived</text>
</g>
<!-- 3&#45;&gt;7 -->
<g id="edge24" class="edge">
<title>3&#45;&gt;7</title>
<path fill="none" stroke="grey" stroke-width="2" d="M347.02,-1079.26C347.22,-1061.29 347.71,-1032.7 348.88,-1008 351.5,-952.36 357.88,-938.7 357.88,-883 357.88,-883 357.88,-883 357.88,-809 357.88,-765.99 367.89,-752.66 395.88,-720 405.5,-708.76 418.12,-699.14 430.67,-691.3"/>
<polygon fill="grey" stroke="grey" stroke-width="2" points="432.15,-694.49 439,-686.41 428.61,-688.46 432.15,-694.49"/>
</g>
<!-- 10 -->
<g id="node11" class="node">
<title>10</title>
<path fill="none" stroke="#a7d856" stroke-width="2" d="M523.88,-900C523.88,-900 441.88,-900 441.88,-900 435.88,-900 429.88,-894 429.88,-888 429.88,-888 429.88,-876 429.88,-876 429.88,-870 435.88,-864 441.88,-864 441.88,-864 523.88,-864 523.88,-864 529.88,-864 535.88,-870 535.88,-876 535.88,-876 535.88,-888 535.88,-888 535.88,-894 529.88,-900 523.88,-900"/>
<text xml:space="preserve" text-anchor="middle" x="482.88" y="-878.12" font-family="sans" font-size="10.00">generate_candidates</text>
</g>
<!-- 3&#45;&gt;10 -->
<g id="edge29" class="edge">
<title>3&#45;&gt;10</title>
<path fill="none" stroke="grey" stroke-width="2" d="M402.19,-1095.08C439.49,-1090.55 486.23,-1077.87 510.88,-1044 525.72,-1023.6 506.43,-953.86 493.27,-913.16"/>
<polygon fill="grey" stroke="grey" stroke-width="2" points="496.6,-912.09 490.13,-903.7 489.95,-914.3 496.6,-912.09"/>
</g>
<!-- 4&#45;&gt;0 -->
<g id="edge12" class="edge">
<title>4&#45;&gt;0</title>
<path fill="none" stroke="grey" stroke-width="2" d="M271.93,-935.03C283.09,-908.48 301.88,-856.94 301.88,-811 301.88,-811 301.88,-811 301.88,-161 301.88,-96.77 374.9,-54.51 422.28,-33.86"/>
<polygon fill="grey" stroke="grey" stroke-width="2" points="423.34,-37.21 431.21,-30.12 420.64,-30.75 423.34,-37.21"/>
</g>
<!-- 5&#45;&gt;4 -->
<g id="edge16" class="edge">
<title>5&#45;&gt;4</title>
<path fill="none" stroke="grey" stroke-width="2" d="M387.56,-1007.15C366.47,-998.26 340.72,-987.41 318.19,-977.91"/>
<polygon fill="grey" stroke="grey" stroke-width="2" points="319.77,-974.77 309.19,-974.11 317.05,-981.22 319.77,-974.77"/>
</g>
<!-- 5&#45;&gt;7 -->
<g id="edge23" class="edge">
<title>5&#45;&gt;7</title>
<path fill="none" stroke="grey" stroke-width="2" d="M422.83,-1007.39C412.87,-980.87 395.88,-928.88 395.88,-883 395.88,-883 395.88,-883 395.88,-809 395.88,-768.46 394.55,-754.48 415.88,-720 422.29,-709.63 431.46,-700.38 440.89,-692.62"/>
<polygon fill="grey" stroke="grey" stroke-width="2" points="442.9,-695.49 448.72,-686.64 438.65,-689.93 442.9,-695.49"/>
</g>
<!-- 5&#45;&gt;10 -->
<g id="edge28" class="edge">
<title>5&#45;&gt;10</title>
<path fill="none" stroke="grey" stroke-width="2" d="M436.59,-1007.02C445.43,-983.33 461.1,-941.35 471.73,-912.86"/>
<polygon fill="grey" stroke="grey" stroke-width="2" points="474.94,-914.27 475.16,-903.67 468.38,-911.82 474.94,-914.27"/>
</g>
<!-- 5&#45;&gt;11 -->
<g id="edge31" class="edge">
<title>5&#45;&gt;11</title>
<path fill="none" stroke="grey" stroke-width="2" d="M471.43,-1007.15C492.04,-998.3 517.18,-987.51 539.23,-978.04"/>
<polygon fill="grey" stroke="grey" stroke-width="2" points="540.53,-981.29 548.33,-974.13 537.76,-974.86 540.53,-981.29"/>
</g>
<!-- 16 -->
<g id="node17" class="node">
<title>16</title>
<path fill="none" stroke="#566bd8" stroke-width="2" d="M726.38,-324C726.38,-324 629.38,-324 629.38,-324 623.38,-324 617.38,-318 617.38,-312 617.38,-312 617.38,-300 617.38,-300 617.38,-294 623.38,-288 629.38,-288 629.38,-288 726.38,-288 726.38,-288 732.38,-288 738.38,-294 738.38,-300 738.38,-300 738.38,-312 738.38,-312 738.38,-318 732.38,-324 726.38,-324"/>
<text xml:space="preserve" text-anchor="middle" x="677.88" y="-302.12" font-family="sans" font-size="10.00">write_submission_warm</text>
</g>
<!-- 5&#45;&gt;16 -->
<g id="edge39" class="edge">
<title>5&#45;&gt;16</title>
<path fill="none" stroke="grey" stroke-width="2" d="M502.79,-1017.64C564.86,-1009.87 647.58,-995.43 670.88,-972 699.39,-943.31 689.88,-923.45 689.88,-883 689.88,-883 689.88,-883 689.88,-449 689.88,-410.52 685.44,-366.37 681.97,-337.66"/>
<polygon fill="grey" stroke="grey" stroke-width="2" points="685.46,-337.38 680.74,-327.9 678.52,-338.25 685.46,-337.38"/>
</g>
<!-- 6 -->
<g id="node7" class="node">
<title>6</title>
<path fill="none" stroke="#d6d856" stroke-width="2" d="M512.5,-612C512.5,-612 449.25,-612 449.25,-612 443.25,-612 437.25,-606 437.25,-600 437.25,-600 437.25,-588 437.25,-588 437.25,-582 443.25,-576 449.25,-576 449.25,-576 512.5,-576 512.5,-576 518.5,-576 524.5,-582 524.5,-588 524.5,-588 524.5,-600 524.5,-600 524.5,-606 518.5,-612 512.5,-612"/>
<text xml:space="preserve" text-anchor="middle" x="480.88" y="-590.12" font-family="sans" font-size="10.00">feature_analysis</text>
</g>
<!-- 6&#45;&gt;0 -->
<g id="edge5" class="edge">
<title>6&#45;&gt;0</title>
<path fill="none" stroke="grey" stroke-width="2" d="M452.7,-575.15C418.94,-551.31 366.88,-505.69 366.88,-451 366.88,-451 366.88,-451 366.88,-161 366.88,-114.3 402.81,-71.34 430.47,-45.17"/>
<polygon fill="grey" stroke="grey" stroke-width="2" points="432.57,-48 437.6,-38.68 427.85,-42.82 432.57,-48"/>
</g>
<!-- 12 -->
<g id="node13" class="node">
<title>12</title>
<path fill="none" stroke="#56b1d8" stroke-width="2" d="M474.38,-468C474.38,-468 407.38,-468 407.38,-468 401.38,-468 395.38,-462 395.38,-456 395.38,-456 395.38,-444 395.38,-444 395.38,-438 401.38,-432 407.38,-432 407.38,-432 474.38,-432 474.38,-432 480.38,-432 486.38,-438 486.38,-444 486.38,-444 486.38,-456 486.38,-456 486.38,-462 480.38,-468 474.38,-468"/>
<text xml:space="preserve" text-anchor="middle" x="440.88" y="-446.12" font-family="sans" font-size="10.00">suggest_features</text>
</g>
<!-- 6&#45;&gt;12 -->
<g id="edge33" class="edge">
<title>6&#45;&gt;12</title>
<path fill="none" stroke="grey" stroke-width="2" d="M475.81,-575.02C469.17,-551.44 457.42,-509.73 449.4,-481.25"/>
<polygon fill="grey" stroke="grey" stroke-width="2" points="452.8,-480.43 446.72,-471.75 446.06,-482.33 452.8,-480.43"/>
</g>
<!-- 14 -->
<g id="node15" class="node">
<title>14</title>
<path fill="none" stroke="#bed856" stroke-width="2" d="M650,-540C650,-540 583.75,-540 583.75,-540 577.75,-540 571.75,-534 571.75,-528 571.75,-528 571.75,-516 571.75,-516 571.75,-510 577.75,-504 583.75,-504 583.75,-504 650,-504 650,-504 656,-504 662,-510 662,-516 662,-516 662,-528 662,-528 662,-534 656,-540 650,-540"/>
<text xml:space="preserve" text-anchor="middle" x="616.88" y="-518.12" font-family="sans" font-size="10.00">feature_selection</text>
</g>
<!-- 6&#45;&gt;14 -->
<g id="edge37" class="edge">
<title>6&#45;&gt;14</title>
<path fill="none" stroke="grey" stroke-width="2" d="M515.55,-575.15C532.33,-566.52 552.71,-556.02 570.79,-546.72"/>
<polygon fill="grey" stroke="grey" stroke-width="2" points="572.29,-549.89 579.58,-542.2 569.08,-543.66 572.29,-549.89"/>
</g>
<!-- 7&#45;&gt;6 -->
<g id="edge20" class="edge">
<title>7&#45;&gt;6</title>
<path fill="none" stroke="grey" stroke-width="2" d="M480.88,-647.34C480.88,-640.75 480.88,-633.08 480.88,-625.67"/>
<polygon fill="grey" stroke="grey" stroke-width="2" points="484.38,-625.93 480.88,-615.93 477.38,-625.93 484.38,-625.93"/>
</g>
<!-- 7&#45;&gt;14 -->
<g id="edge36" class="edge">
<title>7&#45;&gt;14</title>
<path fill="none" stroke="grey" stroke-width="2" d="M499.18,-647C509.47,-636.82 522.49,-623.79 533.88,-612 553.69,-591.48 575.69,-567.85 592.06,-550.1"/>
<polygon fill="grey" stroke="grey" stroke-width="2" points="594.28,-552.86 598.47,-543.13 589.12,-548.12 594.28,-552.86"/>
</g>
<!-- 8 -->
<g id="node9" class="node">
<title>8</title>
<path fill="none" stroke="#56d863" stroke-width="2" d="M524.5,-756C524.5,-756 437.25,-756 437.25,-756 431.25,-756 425.25,-750 425.25,-744 425.25,-744 425.25,-732 425.25,-732 425.25,-726 431.25,-720 437.25,-720 437.25,-720 524.5,-720 524.5,-720 530.5,-720 536.5,-726 536.5,-732 536.5,-732 536.5,-744 536.5,-744 536.5,-750 530.5,-756 524.5,-756"/>
<text xml:space="preserve" text-anchor="middle" x="480.88" y="-734.12" font-family="sans" font-size="10.00">sanitize_features_raw</text>
</g>
<!-- 8&#45;&gt;7 -->
<g id="edge22" class="edge">
<title>8&#45;&gt;7</title>
<path fill="none" stroke="grey" stroke-width="2" d="M480.88,-719.34C480.88,-712.75 480.88,-705.08 480.88,-697.67"/>
<polygon fill="grey" stroke="grey" stroke-width="2" points="484.38,-697.93 480.88,-687.93 477.38,-697.93 484.38,-697.93"/>
</g>
<!-- 9 -->
<g id="node10" class="node">
<title>9</title>
<path fill="none" stroke="#d8c356" stroke-width="2" d="M526,-828C526,-828 435.75,-828 435.75,-828 429.75,-828 423.75,-822 423.75,-816 423.75,-816 423.75,-804 423.75,-804 423.75,-798 429.75,-792 435.75,-792 435.75,-792 526,-792 526,-792 532,-792 538,-798 538,-804 538,-804 538,-816 538,-816 538,-822 532,-828 526,-828"/>
<text xml:space="preserve" text-anchor="middle" x="480.88" y="-806.12" font-family="sans" font-size="10.00">engineer_features_raw</text>
</g>
<!-- 9&#45;&gt;8 -->
<g id="edge26" class="edge">
<title>9&#45;&gt;8</title>
<path fill="none" stroke="grey" stroke-width="2" d="M480.88,-791.34C480.88,-784.75 480.88,-777.08 480.88,-769.67"/>
<polygon fill="grey" stroke="grey" stroke-width="2" points="484.38,-769.93 480.88,-759.93 477.38,-769.93 484.38,-769.93"/>
</g>
<!-- 10&#45;&gt;9 -->
<g id="edge27" class="edge">
<title>10&#45;&gt;9</title>
<path fill="none" stroke="grey" stroke-width="2" d="M482.37,-863.34C482.18,-856.75 481.96,-849.08 481.75,-841.67"/>
<polygon fill="grey" stroke="grey" stroke-width="2" points="485.26,-841.82 481.47,-831.93 478.26,-842.02 485.26,-841.82"/>
</g>
<!-- 11&#45;&gt;6 -->
<g id="edge21" class="edge">
<title>11&#45;&gt;6</title>
<path fill="none" stroke="grey" stroke-width="2" d="M595.15,-935.1C598.38,-908.21 603.88,-855.76 603.88,-811 603.88,-811 603.88,-811 603.88,-737 603.88,-686.31 558.54,-644.83 522.91,-620.06"/>
<polygon fill="grey" stroke="grey" stroke-width="2" points="525.01,-617.25 514.75,-614.6 521.12,-623.07 525.01,-617.25"/>
</g>
<!-- 11&#45;&gt;7 -->
<g id="edge25" class="edge">
<title>11&#45;&gt;7</title>
<path fill="none" stroke="grey" stroke-width="2" d="M590.83,-935.03C585.13,-886.97 567.99,-756.66 545.88,-720 539.63,-709.65 530.61,-700.45 521.26,-692.73"/>
<polygon fill="grey" stroke="grey" stroke-width="2" points="523.58,-690.09 513.51,-686.79 519.32,-695.65 523.58,-690.09"/>
</g>
<!-- 11&#45;&gt;10 -->
<g id="edge30" class="edge">
<title>11&#45;&gt;10</title>
<path fill="none" stroke="grey" stroke-width="2" d="M564.83,-935.15C551.77,-926.84 536.02,-916.82 521.83,-907.79"/>
<polygon fill="grey" stroke="grey" stroke-width="2" points="523.74,-904.85 513.42,-902.44 519.98,-910.76 523.74,-904.85"/>
</g>
<!-- 13 -->
<g id="node14" class="node">
<title>13</title>
<path fill="none" stroke="#569ad8" stroke-width="2" d="M571.75,-468C571.75,-468 516,-468 516,-468 510,-468 504,-462 504,-456 504,-456 504,-444 504,-444 504,-438 510,-432 516,-432 516,-432 571.75,-432 571.75,-432 577.75,-432 583.75,-438 583.75,-444 583.75,-444 583.75,-456 583.75,-456 583.75,-462 577.75,-468 571.75,-468"/>
<text xml:space="preserve" text-anchor="middle" x="543.88" y="-446.12" font-family="sans" font-size="10.00">train_approach</text>
</g>
<!-- 11&#45;&gt;13 -->
<g id="edge34" class="edge">
<title>11&#45;&gt;13</title>
<path fill="none" stroke="grey" stroke-width="2" d="M603.27,-935.3C617.65,-909.07 641.88,-857.94 641.88,-811 641.88,-811 641.88,-811 641.88,-737 641.88,-642.67 590.38,-630.23 562.88,-540 557.06,-520.92 552.36,-499.01 549.09,-481.71"/>
<polygon fill="grey" stroke="grey" stroke-width="2" points="552.54,-481.15 547.32,-471.94 545.66,-482.4 552.54,-481.15"/>
</g>
<!-- 11&#45;&gt;16 -->
<g id="edge41" class="edge">
<title>11&#45;&gt;16</title>
<path fill="none" stroke="grey" stroke-width="2" d="M628.7,-935.07C668.69,-912.21 727.88,-868.66 727.88,-811 727.88,-811 727.88,-811 727.88,-449 727.88,-408.02 709.12,-363.97 694.58,-335.98"/>
<polygon fill="grey" stroke="grey" stroke-width="2" points="697.75,-334.48 689.92,-327.34 691.59,-337.8 697.75,-334.48"/>
</g>
<!-- 17 -->
<g id="node18" class="node">
<title>17</title>
<path fill="none" stroke="#56d87b" stroke-width="2" d="M714.25,-252C714.25,-252 643.5,-252 643.5,-252 637.5,-252 631.5,-246 631.5,-240 631.5,-240 631.5,-228 631.5,-228 631.5,-222 637.5,-216 643.5,-216 643.5,-216 714.25,-216 714.25,-216 720.25,-216 726.25,-222 726.25,-228 726.25,-228 726.25,-240 726.25,-240 726.25,-246 720.25,-252 714.25,-252"/>
<text xml:space="preserve" text-anchor="middle" x="678.88" y="-230.12" font-family="sans" font-size="10.00">score_submission</text>
</g>
<!-- 11&#45;&gt;17 -->
<g id="edge43" class="edge">
<title>11&#45;&gt;17</title>
<path fill="none" stroke="grey" stroke-width="2" d="M646.03,-935.17C697.2,-914.25 766.88,-874.17 766.88,-811 766.88,-811 766.88,-811 766.88,-377 766.88,-336.55 769.46,-322.2 747.88,-288 741.17,-277.38 731.55,-268.07 721.61,-260.34"/>
<polygon fill="grey" stroke="grey" stroke-width="2" points="723.85,-257.64 713.69,-254.63 719.76,-263.32 723.85,-257.64"/>
</g>
<!-- 12&#45;&gt;0 -->
<g id="edge1" class="edge">
<title>12&#45;&gt;0</title>
<path fill="none" stroke="grey" stroke-width="2" d="M433.42,-431.43C422.87,-404.96 404.88,-353.03 404.88,-307 404.88,-307 404.88,-307 404.88,-161 404.88,-120.03 412.54,-109.57 428.88,-72 432.43,-63.81 437.12,-55.41 441.83,-47.78"/>
<polygon fill="grey" stroke="grey" stroke-width="2" points="444.73,-49.75 447.23,-39.45 438.85,-45.94 444.73,-49.75"/>
</g>
<!-- 13&#45;&gt;0 -->
<g id="edge13" class="edge">
<title>13&#45;&gt;0</title>
<path fill="none" stroke="grey" stroke-width="2" d="M519.68,-431.04C489.8,-406.59 442.88,-359.79 442.88,-307 442.88,-307 442.88,-307 442.88,-161 442.88,-122.31 449.89,-78.21 455.39,-49.56"/>
<polygon fill="grey" stroke="grey" stroke-width="2" points="458.82,-50.29 457.35,-39.8 451.95,-48.92 458.82,-50.29"/>
</g>
<!-- 15 -->
<g id="node16" class="node">
<title>15</title>
<path fill="none" stroke="#56d8b9" stroke-width="2" d="M572.88,-396C572.88,-396 514.88,-396 514.88,-396 508.88,-396 502.88,-390 502.88,-384 502.88,-384 502.88,-372 502.88,-372 502.88,-366 508.88,-360 514.88,-360 514.88,-360 572.88,-360 572.88,-360 578.88,-360 584.88,-366 584.88,-372 584.88,-372 584.88,-384 584.88,-384 584.88,-390 578.88,-396 572.88,-396"/>
<text xml:space="preserve" text-anchor="middle" x="543.88" y="-374.12" font-family="sans" font-size="10.00">select_portfolio</text>
</g>
<!-- 13&#45;&gt;15 -->
<g id="edge38" class="edge">
<title>13&#45;&gt;15</title>
<path fill="none" stroke="grey" stroke-width="2" d="M543.88,-431.34C543.88,-424.75 543.88,-417.08 543.88,-409.67"/>
<polygon fill="grey" stroke="grey" stroke-width="2" points="547.38,-409.93 543.88,-399.93 540.38,-409.93 547.38,-409.93"/>
</g>
<!-- 14&#45;&gt;13 -->
<g id="edge35" class="edge">
<title>14&#45;&gt;13</title>
<path fill="none" stroke="grey" stroke-width="2" d="M598.45,-503.34C590.39,-495.6 580.75,-486.36 571.83,-477.81"/>
<polygon fill="grey" stroke="grey" stroke-width="2" points="574.37,-475.39 564.73,-471 569.52,-480.44 574.37,-475.39"/>
</g>
<!-- 15&#45;&gt;0 -->
<g id="edge3" class="edge">
<title>15&#45;&gt;0</title>
<path fill="none" stroke="grey" stroke-width="2" d="M530.2,-359.29C511.68,-333.47 480.88,-283.28 480.88,-235 480.88,-235 480.88,-235 480.88,-161 480.88,-122.31 473.86,-78.21 468.36,-49.56"/>
<polygon fill="grey" stroke="grey" stroke-width="2" points="471.8,-48.92 466.4,-39.8 464.93,-50.29 471.8,-48.92"/>
</g>
<!-- 15&#45;&gt;16 -->
<g id="edge40" class="edge">
<title>15&#45;&gt;16</title>
<path fill="none" stroke="grey" stroke-width="2" d="M578.04,-359.15C594.57,-350.52 614.66,-340.02 632.46,-330.72"/>
<polygon fill="grey" stroke="grey" stroke-width="2" points="633.85,-333.95 641.09,-326.21 630.61,-327.74 633.85,-333.95"/>
</g>
<!-- 16&#45;&gt;0 -->
<g id="edge4" class="edge">
<title>16&#45;&gt;0</title>
<path fill="none" stroke="grey" stroke-width="2" d="M657.32,-287.01C646.55,-277.15 633.44,-264.43 622.88,-252 592.1,-215.78 516,-101.4 480.57,-47.55"/>
<polygon fill="grey" stroke="grey" stroke-width="2" points="483.54,-45.7 475.13,-39.26 477.69,-49.54 483.54,-45.7"/>
</g>
<!-- 16&#45;&gt;17 -->
<g id="edge42" class="edge">
<title>16&#45;&gt;17</title>
<path fill="none" stroke="grey" stroke-width="2" d="M678.13,-287.34C678.22,-280.75 678.33,-273.08 678.44,-265.67"/>
<polygon fill="grey" stroke="grey" stroke-width="2" points="681.93,-265.98 678.58,-255.93 674.93,-265.88 681.93,-265.98"/>
</g>
<!-- 19 -->
<g id="node20" class="node">
<title>19</title>
<path fill="none" stroke="#56c9d8" stroke-width="2" d="M879.88,-180C879.88,-180 815.88,-180 815.88,-180 809.88,-180 803.88,-174 803.88,-168 803.88,-168 803.88,-156 803.88,-156 803.88,-150 809.88,-144 815.88,-144 815.88,-144 879.88,-144 879.88,-144 885.88,-144 891.88,-150 891.88,-156 891.88,-156 891.88,-168 891.88,-168 891.88,-174 885.88,-180 879.88,-180"/>
<text xml:space="preserve" text-anchor="middle" x="847.88" y="-158.12" font-family="sans" font-size="10.00">submit_to_portal</text>
</g>
<!-- 16&#45;&gt;19 -->
<g id="edge45" class="edge">
<title>16&#45;&gt;19</title>
<path fill="none" stroke="grey" stroke-width="2" d="M699.41,-287.02C729.04,-262.26 782.59,-217.53 816.63,-189.1"/>
<polygon fill="grey" stroke="grey" stroke-width="2" points="818.76,-191.88 824.2,-182.78 814.28,-186.5 818.76,-191.88"/>
</g>
<!-- 17&#45;&gt;0 -->
<g id="edge7" class="edge">
<title>17&#45;&gt;0</title>
<path fill="none" stroke="grey" stroke-width="2" d="M658.47,-215.23C647.32,-205.22 633.46,-192.3 621.88,-180 579.23,-134.72 577.9,-114.91 532.88,-72 522.67,-62.27 510.66,-52.71 499.46,-44.45"/>
<polygon fill="grey" stroke="grey" stroke-width="2" points="501.66,-41.72 491.5,-38.73 497.58,-47.41 501.66,-41.72"/>
</g>
<!-- 18 -->
<g id="node19" class="node">
<title>18</title>
<path fill="none" stroke="#d86e56" stroke-width="2" d="M714.62,-180C714.62,-180 643.12,-180 643.12,-180 637.12,-180 631.12,-174 631.12,-168 631.12,-168 631.12,-156 631.12,-156 631.12,-150 637.12,-144 643.12,-144 643.12,-144 714.62,-144 714.62,-144 720.62,-144 726.62,-150 726.62,-156 726.62,-156 726.62,-168 726.62,-168 726.62,-174 720.62,-180 714.62,-180"/>
<text xml:space="preserve" text-anchor="middle" x="678.88" y="-158.12" font-family="sans" font-size="10.00">archive_score_run</text>
</g>
<!-- 17&#45;&gt;18 -->
<g id="edge44" class="edge">
<title>17&#45;&gt;18</title>
<path fill="none" stroke="grey" stroke-width="2" d="M678.88,-215.34C678.88,-208.75 678.88,-201.08 678.88,-193.67"/>
<polygon fill="grey" stroke="grey" stroke-width="2" points="682.38,-193.93 678.88,-183.93 675.38,-193.93 682.38,-193.93"/>
</g>
<!-- 18&#45;&gt;0 -->
<g id="edge9" class="edge">
<title>18&#45;&gt;0</title>
<path fill="none" stroke="grey" stroke-width="2" d="M656.85,-143.16C644.24,-132.91 628.13,-119.78 613.88,-108 594.66,-92.12 591.79,-85.55 570.88,-72 549.03,-57.85 522.84,-44.99 501.61,-35.49"/>
<polygon fill="grey" stroke="grey" stroke-width="2" points="503.09,-32.32 492.52,-31.51 500.28,-38.73 503.09,-32.32"/>
</g>
<!-- 20 -->
<g id="node21" class="node">
<title>20</title>
<path fill="none" stroke="#56d892" stroke-width="2" d="M725,-108C725,-108 634.75,-108 634.75,-108 628.75,-108 622.75,-102 622.75,-96 622.75,-96 622.75,-84 622.75,-84 622.75,-78 628.75,-72 634.75,-72 634.75,-72 725,-72 725,-72 731,-72 737,-78 737,-84 737,-84 737,-96 737,-96 737,-102 731,-108 725,-108"/>
<text xml:space="preserve" text-anchor="middle" x="679.88" y="-86.12" font-family="sans" font-size="10.00">select_best_score_run</text>
</g>
<!-- 18&#45;&gt;20 -->
<g id="edge46" class="edge">
<title>18&#45;&gt;20</title>
<path fill="none" stroke="grey" stroke-width="2" d="M679.13,-143.34C679.22,-136.75 679.33,-129.08 679.44,-121.67"/>
<polygon fill="grey" stroke="grey" stroke-width="2" points="682.93,-121.98 679.58,-111.93 675.93,-121.88 682.93,-121.98"/>
</g>
<!-- 21 -->
<g id="node22" class="node">
<title>21</title>
<path fill="none" stroke="#56d8a2" stroke-width="2" d="M864.38,-108C864.38,-108 767.38,-108 767.38,-108 761.38,-108 755.38,-102 755.38,-96 755.38,-96 755.38,-84 755.38,-84 755.38,-78 761.38,-72 767.38,-72 767.38,-72 864.38,-72 864.38,-72 870.38,-72 876.38,-78 876.38,-84 876.38,-84 876.38,-96 876.38,-96 876.38,-102 870.38,-108 864.38,-108"/>
<text xml:space="preserve" text-anchor="middle" x="815.88" y="-86.12" font-family="sans" font-size="10.00">select_latest_online_run</text>
</g>
<!-- 18&#45;&gt;21 -->
<g id="edge47" class="edge">
<title>18&#45;&gt;21</title>
<path fill="none" stroke="grey" stroke-width="2" d="M713.8,-143.15C730.71,-134.52 751.24,-124.02 769.45,-114.72"/>
<polygon fill="grey" stroke="grey" stroke-width="2" points="771.01,-117.86 778.32,-110.19 767.82,-111.62 771.01,-117.86"/>
</g>
<!-- 19&#45;&gt;0 -->
<g id="edge8" class="edge">
<title>19&#45;&gt;0</title>
<path fill="none" stroke="grey" stroke-width="2" d="M865.82,-143.14C883.13,-123.75 904.22,-92.78 885.88,-72 860.7,-43.49 603.77,-26.65 502.55,-21.07"/>
<polygon fill="grey" stroke="grey" stroke-width="2" points="502.81,-17.58 492.64,-20.54 502.43,-24.57 502.81,-17.58"/>
</g>
<!-- 20&#45;&gt;0 -->
<g id="edge10" class="edge">
<title>20&#45;&gt;0</title>
<path fill="none" stroke="grey" stroke-width="2" d="M624.02,-71.06C585.87,-58.82 536.23,-42.88 501.98,-31.88"/>
<polygon fill="grey" stroke="grey" stroke-width="2" points="503.13,-28.57 492.54,-28.85 500.99,-35.24 503.13,-28.57"/>
</g>
<!-- 21&#45;&gt;0 -->
<g id="edge14" class="edge">
<title>21&#45;&gt;0</title>
<path fill="none" stroke="grey" stroke-width="2" d="M754.46,-73.89C751.56,-73.24 748.69,-72.6 745.88,-72 659.57,-53.48 557.71,-35.38 502.47,-25.87"/>
<polygon fill="grey" stroke="grey" stroke-width="2" points="503.22,-22.45 492.77,-24.21 502.04,-29.35 503.22,-22.45"/>
</g>
</g>
</svg>
