<?xml version="1.0" encoding="UTF-8" standalone="no"?>
<!DOCTYPE svg PUBLIC "-//W3C//DTD SVG 1.1//EN"
 "http://www.w3.org/Graphics/SVG/1.1/DTD/svg11.dtd">
<!-- Generated by graphviz version 14.0.2 (20251019.1705)
 -->
<!-- Title: snakemake_dag Pages: 1 -->
<svg width="1200pt" height="1268pt"
 viewBox="0.00 0.00 1200.00 1268.00" xmlns="http://www.w3.org/2000/svg" xmlns:xlink="http://www.w3.org/1999/xlink">
<g id="graph0" class="graph" transform="scale(1 1) rotate(0) translate(4 1264)">
<title>snakemake_dag</title>
<polygon fill="white" stroke="none" points="-4,4 -4,-1264 1195.5,-1264 1195.5,4 -4,4"/>
<!-- 0 -->
<g id="node1" class="node">
<title>0</title>
<path fill="none" stroke="#d85656" stroke-width="2" d="M556.88,-36C556.88,-36 526.88,-36 526.88,-36 520.88,-36 514.88,-30 514.88,-24 514.88,-24 514.88,-12 514.88,-12 514.88,-6 520.88,0 526.88,0 526.88,0 556.88,0 556.88,0 562.88,0 568.88,-6 568.88,-12 568.88,-12 568.88,-24 568.88,-24 568.88,-30 562.88,-36 556.88,-36"/>
<text xml:space="preserve" text-anchor="middle" x="541.88" y="-14.12" font-family="sans" font-size="10.00">all</text>
</g>
<!-- 1 -->
<g id="node2" class="node">
<title>1</title>
<path fill="none" stroke="#68d856" stroke-width="2" d="M91.75,-108C91.75,-108 12,-108 12,-108 6,-108 0,-102 0,-96 0,-96 0,-84 0,-84 0,-78 6,-72 12,-72 12,-72 91.75,-72 91.75,-72 97.75,-72 103.75,-78 103.75,-84 103.75,-84 103.75,-96 103.75,-96 103.75,-102 97.75,-108 91.75,-108"/>
<text xml:space="preserve" text-anchor="middle" x="51.88" y="-86.12" font-family="sans" font-size="10.00">generate_dag_graph</text>
</g>
<!-- 1&#45;&gt;0 -->
<g id="edge3" class="edge">
<title>1&#45;&gt;0</title>
<path fill="none" stroke="grey" stroke-width="2" d="M104.7,-74.76C109.14,-73.76 113.57,-72.82 117.88,-72 257.43,-45.42 425.46,-28.95 501.27,-22.34"/>
<polygon fill="grey" stroke="grey" stroke-width="2" points="501.22,-25.85 510.89,-21.51 500.62,-18.88 501.22,-25.85"/>
</g>
<!-- 2 -->
<g id="node3" class="node">
<title>2</title>
<path fill="none" stroke="#d8bc56" stroke-width="2" d="M648,-1260C648,-1260 575.75,-1260 575.75,-1260 569.75,-1260 563.75,-1254 563.75,-1248 563.75,-1248 563.75,-1236 563.75,-1236 563.75,-1230 569.75,-1224 575.75,-1224 575.75,-1224 648,-1224 648,-1224 654,-1224 660,-1230 660,-1236 660,-1236 660,-1248 660,-1248 660,-1254 654,-1260 648,-1260"/>
<text xml:space="preserve" text-anchor="middle" x="611.88" y="-1238.12" font-family="sans" font-size="10.00">clean_plis_training</text>
</g>
<!-- 2&#45;&gt;0 -->
<g id="edge9" class="edge">
<title>2&#45;&gt;0</title>
<path fill="none" stroke="grey" stroke-width="2" d="M562.76,-1236.99C440.43,-1225.64 131.88,-1188.18 131.88,-1099 131.88,-1099 131.88,-1099 131.88,-161 131.88,-102.49 176.32,-97.72 228.88,-72 319.04,-27.88 439.34,-19.71 501.26,-18.67"/>
<polygon fill="grey" stroke="grey" stroke-width="2" points="500.92,-22.18 510.88,-18.58 500.85,-15.18 500.92,-22.18"/>
</g>
<!-- 3 -->
<g id="node4" class="node">
<title>3</title>
<path fill="none" stroke="#d89556" stroke-width="2" d="M930.38,-1188C930.38,-1188 845.38,-1188 845.38,-1188 839.38,-1188 833.38,-1182 833.38,-1176 833.38,-1176 833.38,-1164 833.38,-1164 833.38,-1158 839.38,-1152 845.38,-1152 845.38,-1152 930.38,-1152 930.38,-1152 936.38,-1152 942.38,-1158 942.38,-1164 942.38,-1164 942.38,-1176 942.38,-1176 942.38,-1182 936.38,-1188 930.38,-1188"/>
<text xml:space="preserve" text-anchor="middle" x="887.88" y="-1166.12" font-family="sans" font-size="10.00">build_customer_meta</text>
</g>
<!-- 2&#45;&gt;3 -->
<g id="edge15" class="edge">
<title>2&#45;&gt;3</title>
<path fill="none" stroke="grey" stroke-width="2" d="M660.9,-1228.57C705.22,-1217.33 770.88,-1200.67 820.19,-1188.17"/>
<polygon fill="grey" stroke="grey" stroke-width="2" points="820.91,-1191.6 829.74,-1185.74 819.18,-1184.81 820.91,-1191.6"/>
</g>
<!-- 4 -->
<g id="node5" class="node">
<title>4</title>
<path fill="none" stroke="#59d856" stroke-width="2" d="M280,-1044C280,-1044 171.75,-1044 171.75,-1044 165.75,-1044 159.75,-1038 159.75,-1032 159.75,-1032 159.75,-1020 159.75,-1020 159.75,-1014 165.75,-1008 171.75,-1008 171.75,-1008 280,-1008 280,-1008 286,-1008 292,-1014 292,-1020 292,-1020 292,-1032 292,-1032 292,-1038 286,-1044 280,-1044"/>
<text xml:space="preserve" text-anchor="middle" x="225.88" y="-1022.12" font-family="sans" font-size="10.00">generate_exploration_plots</text>
</g>
<!-- 2&#45;&gt;4 -->
<g id="edge17" class="edge">
<title>2&#45;&gt;4</title>
<path fill="none" stroke="grey" stroke-width="2" d="M579.63,-1223.12C510.52,-1184.81 348.06,-1094.74 269.68,-1051.29"/>
<polygon fill="grey" stroke="grey" stroke-width="2" points="271.39,-1048.23 260.95,-1046.44 268,-1054.35 271.39,-1048.23"/>
</g>
<!-- 5 -->
<g id="node6" class="node">
<title>5</title>
<path fill="none" stroke="#56d892" stroke-width="2" d="M570,-1116C570,-1116 449.75,-1116 449.75,-1116 443.75,-1116 437.75,-1110 437.75,-1104 437.75,-1104 437.75,-1092 437.75,-1092 437.75,-1086 443.75,-1080 449.75,-1080 449.75,-1080 570,-1080 570,-1080 576,-1080 582,-1086 582,-1092 582,-1092 582,-1104 582,-1104 582,-1110 576,-1116 570,-1116"/>
<text xml:space="preserve" text-anchor="middle" x="509.88" y="-1094.12" font-family="sans" font-size="10.00">prepare_split_customer_meta</text>
</g>
<!-- 2&#45;&gt;5 -->
<g id="edge19" class="edge">
<title>2&#45;&gt;5</title>
<path fill="none" stroke="grey" stroke-width="2" d="M598.96,-1223.02C581.64,-1198.9 550.7,-1155.83 530.23,-1127.34"/>
<polygon fill="grey" stroke="grey" stroke-width="2" points="533.13,-1125.38 524.45,-1119.3 527.45,-1129.46 533.13,-1125.38"/>
</g>
<!-- 6 -->
<g id="node7" class="node">
<title>6</title>
<path fill="none" stroke="#d8a456" stroke-width="2" d="M1179.5,-1116C1179.5,-1116 1080.25,-1116 1080.25,-1116 1074.25,-1116 1068.25,-1110 1068.25,-1104 1068.25,-1104 1068.25,-1092 1068.25,-1092 1068.25,-1086 1074.25,-1080 1080.25,-1080 1080.25,-1080 1179.5,-1080 1179.5,-1080 1185.5,-1080 1191.5,-1086 1191.5,-1092 1191.5,-1092 1191.5,-1104 1191.5,-1104 1191.5,-1110 1185.5,-1116 1179.5,-1116"/>
<text xml:space="preserve" text-anchor="middle" x="1129.88" y="-1094.12" font-family="sans" font-size="10.00">check_vk_price_stability</text>
</g>
<!-- 2&#45;&gt;6 -->
<g id="edge20" class="edge">
<title>2&#45;&gt;6</title>
<path fill="none" stroke="grey" stroke-width="2" d="M660.82,-1238.12C727.87,-1233.12 851.43,-1220.08 951.88,-1188 1001.7,-1172.09 1054.84,-1143.87 1089.96,-1123.47"/>
<polygon fill="grey" stroke="grey" stroke-width="2" points="1091.7,-1126.51 1098.53,-1118.41 1088.14,-1120.47 1091.7,-1126.51"/>
</g>
<!-- 11 -->
<g id="node12" class="node">
<title>11</title>
<path fill="none" stroke="#56d8d0" stroke-width="2" d="M739.62,-1044C739.62,-1044 626.12,-1044 626.12,-1044 620.12,-1044 614.12,-1038 614.12,-1032 614.12,-1032 614.12,-1020 614.12,-1020 614.12,-1014 620.12,-1008 626.12,-1008 626.12,-1008 739.62,-1008 739.62,-1008 745.62,-1008 751.62,-1014 751.62,-1020 751.62,-1020 751.62,-1032 751.62,-1032 751.62,-1038 745.62,-1044 739.62,-1044"/>
<text xml:space="preserve" text-anchor="middle" x="682.88" y="-1022.12" font-family="sans" font-size="10.00">split_plis_training_validation</text>
</g>
<!-- 2&#45;&gt;11 -->
<g id="edge36" class="edge">
<title>2&#45;&gt;11</title>
<path fill="none" stroke="grey" stroke-width="2" d="M617.81,-1223.12C629.97,-1186.46 657.86,-1102.41 672.87,-1057.16"/>
<polygon fill="grey" stroke="grey" stroke-width="2" points="676.13,-1058.44 675.96,-1047.85 669.49,-1056.24 676.13,-1058.44"/>
</g>
<!-- 3&#45;&gt;0 -->
<g id="edge7" class="edge">
<title>3&#45;&gt;0</title>
<path fill="none" stroke="grey" stroke-width="2" d="M930.62,-1151.11C975.58,-1129.11 1039.88,-1087.13 1039.88,-1027 1039.88,-1027 1039.88,-1027 1039.88,-161 1039.88,-66.1 701.2,-31.15 582.44,-21.81"/>
<polygon fill="grey" stroke="grey" stroke-width="2" points="582.97,-18.34 572.74,-21.08 582.44,-25.32 582.97,-18.34"/>
</g>
<!-- 3&#45;&gt;5 -->
<g id="edge18" class="edge">
<title>3&#45;&gt;5</title>
<path fill="none" stroke="grey" stroke-width="2" d="M832.51,-1158.75C770.21,-1147.21 668.27,-1128.33 595.66,-1114.89"/>
<polygon fill="grey" stroke="grey" stroke-width="2" points="596.36,-1111.46 585.89,-1113.08 595.08,-1118.34 596.36,-1111.46"/>
</g>
<!-- 8 -->
<g id="node9" class="node">
<title>8</title>
<path fill="none" stroke="#ced856" stroke-width="2" d="M769.88,-756C769.88,-756 663.88,-756 663.88,-756 657.88,-756 651.88,-750 651.88,-744 651.88,-744 651.88,-732 651.88,-732 651.88,-726 657.88,-720 663.88,-720 663.88,-720 769.88,-720 769.88,-720 775.88,-720 781.88,-726 781.88,-732 781.88,-732 781.88,-744 781.88,-744 781.88,-750 775.88,-756 769.88,-756"/>
<text xml:space="preserve" text-anchor="middle" x="716.88" y="-734.12" font-family="sans" font-size="10.00">engineer_features_derived</text>
</g>
<!-- 3&#45;&gt;8 -->
<g id="edge25" class="edge">
<title>3&#45;&gt;8</title>
<path fill="none" stroke="grey" stroke-width="2" d="M916.05,-1151.15C949.81,-1127.31 1001.88,-1081.69 1001.88,-1027 1001.88,-1027 1001.88,-1027 1001.88,-881 1001.88,-788.33 879.66,-756.13 795.29,-744.95"/>
<polygon fill="grey" stroke="grey" stroke-width="2" points="795.97,-741.51 785.62,-743.76 795.12,-748.46 795.97,-741.51"/>
</g>
<!-- 9 -->
<g id="node10" class="node">
<title>9</title>
<path fill="none" stroke="#b6d856" stroke-width="2" d="M762,-828C762,-828 671.75,-828 671.75,-828 665.75,-828 659.75,-822 659.75,-816 659.75,-816 659.75,-804 659.75,-804 659.75,-798 665.75,-792 671.75,-792 671.75,-792 762,-792 762,-792 768,-792 774,-798 774,-804 774,-804 774,-816 774,-816 774,-822 768,-828 762,-828"/>
<text xml:space="preserve" text-anchor="middle" x="716.88" y="-806.12" font-family="sans" font-size="10.00">engineer_features_raw</text>
</g>
<!-- 3&#45;&gt;9 -->
<g id="edge29" class="edge">
<title>3&#45;&gt;9</title>
<path fill="none" stroke="grey" stroke-width="2" d="M895.93,-1151.03C907.09,-1124.48 925.88,-1072.94 925.88,-1027 925.88,-1027 925.88,-1027 925.88,-953 925.88,-884.36 847.8,-846.58 787.09,-827.58"/>
<polygon fill="grey" stroke="grey" stroke-width="2" points="788.3,-824.29 777.72,-824.78 786.3,-830.99 788.3,-824.29"/>
</g>
<!-- 10 -->
<g id="node11" class="node">
<title>10</title>
<path fill="none" stroke="#80d856" stroke-width="2" d="M758.88,-900C758.88,-900 676.88,-900 676.88,-900 670.88,-900 664.88,-894 664.88,-888 664.88,-888 664.88,-876 664.88,-876 664.88,-870 670.88,-864 676.88,-864 676.88,-864 758.88,-864 758.88,-864 764.88,-864 770.88,-870 770.88,-876 770.88,-876 770.88,-888 770.88,-888 770.88,-894 764.88,-900 758.88,-900"/>
<text xml:space="preserve" text-anchor="middle" x="717.88" y="-878.12" font-family="sans" font-size="10.00">generate_candidates</text>
</g>
<!-- 3&#45;&gt;10 -->
<g id="edge33" class="edge">
<title>3&#45;&gt;10</title>
<path fill="none" stroke="grey" stroke-width="2" d="M886.21,-1151.18C881.46,-1109.21 864.43,-1002.7 809.88,-936 800.4,-924.41 787.67,-914.84 774.72,-907.18"/>
<polygon fill="grey" stroke="grey" stroke-width="2" points="776.45,-904.14 766,-902.39 773.08,-910.27 776.45,-904.14"/>
</g>
<!-- 4&#45;&gt;0 -->
<g id="edge11" class="edge">
<title>4&#45;&gt;0</title>
<path fill="none" stroke="grey" stroke-width="2" d="M225.05,-1007.07C223.87,-980.14 221.88,-927.64 221.88,-883 221.88,-883 221.88,-883 221.88,-161 221.88,-116.68 231.5,-98.7 266.88,-72 303.27,-44.53 433.97,-28.86 501.24,-22.45"/>
<polygon fill="grey" stroke="grey" stroke-width="2" points="501.54,-25.93 511.18,-21.53 500.9,-18.96 501.54,-25.93"/>
</g>
<!-- 5&#45;&gt;4 -->
<g id="edge16" class="edge">
<title>5&#45;&gt;4</title>
<path fill="none" stroke="grey" stroke-width="2" d="M437.11,-1079.06C396.74,-1069.12 346.5,-1056.73 305.14,-1046.54"/>
<polygon fill="grey" stroke="grey" stroke-width="2" points="306.1,-1043.17 295.55,-1044.17 304.43,-1049.97 306.1,-1043.17"/>
</g>
<!-- 5&#45;&gt;8 -->
<g id="edge23" class="edge">
<title>5&#45;&gt;8</title>
<path fill="none" stroke="grey" stroke-width="2" d="M501.82,-1079.03C490.66,-1052.48 471.88,-1000.94 471.88,-955 471.88,-955 471.88,-955 471.88,-881 471.88,-802.74 566.61,-766.9 638.27,-750.99"/>
<polygon fill="grey" stroke="grey" stroke-width="2" points="638.87,-754.44 647.93,-748.95 637.43,-747.59 638.87,-754.44"/>
</g>
<!-- 5&#45;&gt;9 -->
<g id="edge27" class="edge">
<title>5&#45;&gt;9</title>
<path fill="none" stroke="grey" stroke-width="2" d="M515.67,-1079.13C521.89,-1060.81 532.56,-1031.72 544.88,-1008 580.21,-939.95 586.19,-918.75 639.88,-864 650.05,-853.62 662.54,-844.01 674.46,-835.91"/>
<polygon fill="grey" stroke="grey" stroke-width="2" points="676.19,-838.97 682.65,-830.57 672.36,-833.11 676.19,-838.97"/>
</g>
<!-- 5&#45;&gt;10 -->
<g id="edge31" class="edge">
<title>5&#45;&gt;10</title>
<path fill="none" stroke="grey" stroke-width="2" d="M522.11,-1079.26C544.08,-1048.14 592.63,-982.6 642.88,-936 653.62,-926.04 666.31,-916.4 678.16,-908.14"/>
<polygon fill="grey" stroke="grey" stroke-width="2" points="679.92,-911.17 686.24,-902.66 676,-905.38 679.92,-911.17"/>
</g>
<!-- 5&#45;&gt;11 -->
<g id="edge35" class="edge">
<title>5&#45;&gt;11</title>
<path fill="none" stroke="grey" stroke-width="2" d="M553.98,-1079.15C576.06,-1070.22 603.03,-1059.31 626.59,-1049.77"/>
<polygon fill="grey" stroke="grey" stroke-width="2" points="627.79,-1053.06 635.75,-1046.07 625.16,-1046.58 627.79,-1053.06"/>
</g>
<!-- 18 -->
<g id="node19" class="node">
<title>18</title>
<path fill="none" stroke="#566bd8" stroke-width="2" d="M407,-396C407,-396 286.75,-396 286.75,-396 280.75,-396 274.75,-390 274.75,-384 274.75,-384 274.75,-372 274.75,-372 274.75,-366 280.75,-360 286.75,-360 286.75,-360 407,-360 407,-360 413,-360 419,-366 419,-372 419,-372 419,-384 419,-384 419,-390 413,-396 407,-396"/>
<text xml:space="preserve" text-anchor="middle" x="346.88" y="-374.12" font-family="sans" font-size="10.00">write_submission_warm_only</text>
</g>
<!-- 5&#45;&gt;18 -->
<g id="edge46" class="edge">
<title>5&#45;&gt;18</title>
<path fill="none" stroke="grey" stroke-width="2" d="M437.43,-1079.03C415.02,-1070.96 391.38,-1059.63 372.88,-1044 337.7,-1014.29 319.88,-1001.04 319.88,-955 319.88,-955 319.88,-955 319.88,-521 319.88,-481.79 329.93,-437.54 337.77,-409.02"/>
<polygon fill="grey" stroke="grey" stroke-width="2" points="341.07,-410.21 340.45,-399.64 334.34,-408.29 341.07,-410.21"/>
</g>
<!-- 19 -->
<g id="node20" class="node">
<title>19</title>
<path fill="none" stroke="#567bd8" stroke-width="2" d="M563,-396C563,-396 448.75,-396 448.75,-396 442.75,-396 436.75,-390 436.75,-384 436.75,-384 436.75,-372 436.75,-372 436.75,-366 442.75,-360 448.75,-360 448.75,-360 563,-360 563,-360 569,-360 575,-366 575,-372 575,-372 575,-384 575,-384 575,-390 569,-396 563,-396"/>
<text xml:space="preserve" text-anchor="middle" x="505.88" y="-374.12" font-family="sans" font-size="10.00">write_submission_cold_only</text>
</g>
<!-- 5&#45;&gt;19 -->
<g id="edge49" class="edge">
<title>5&#45;&gt;19</title>
<path fill="none" stroke="grey" stroke-width="2" d="M467.13,-1079.11C422.17,-1057.11 357.88,-1015.13 357.88,-955 357.88,-955 357.88,-955 357.88,-521 357.88,-466.53 410.72,-426.45 453.26,-403.02"/>
<polygon fill="grey" stroke="grey" stroke-width="2" points="454.77,-406.18 461.97,-398.41 451.5,-399.99 454.77,-406.18"/>
</g>
<!-- 6&#45;&gt;0 -->
<g id="edge14" class="edge">
<title>6&#45;&gt;0</title>
<path fill="none" stroke="grey" stroke-width="2" d="M1124.49,-1079.26C1116.87,-1052.56 1103.88,-1000.36 1103.88,-955 1103.88,-955 1103.88,-955 1103.88,-161 1103.88,-115.63 1091.8,-96.9 1053.88,-72 976.59,-21.25 689.72,-17.91 582.58,-18.5"/>
<polygon fill="grey" stroke="grey" stroke-width="2" points="582.56,-15 572.59,-18.58 582.61,-22 582.56,-15"/>
</g>
<!-- 7 -->
<g id="node8" class="node">
<title>7</title>
<path fill="none" stroke="#a7d856" stroke-width="2" d="M748.5,-684C748.5,-684 685.25,-684 685.25,-684 679.25,-684 673.25,-678 673.25,-672 673.25,-672 673.25,-660 673.25,-660 673.25,-654 679.25,-648 685.25,-648 685.25,-648 748.5,-648 748.5,-648 754.5,-648 760.5,-654 760.5,-660 760.5,-660 760.5,-672 760.5,-672 760.5,-678 754.5,-684 748.5,-684"/>
<text xml:space="preserve" text-anchor="middle" x="716.88" y="-662.12" font-family="sans" font-size="10.00">feature_analysis</text>
</g>
<!-- 7&#45;&gt;0 -->
<g id="edge10" class="edge">
<title>7&#45;&gt;0</title>
<path fill="none" stroke="grey" stroke-width="2" d="M724.72,-647.01C735.58,-620.43 753.88,-568.86 753.88,-523 753.88,-523 753.88,-523 753.88,-161 753.88,-79.28 643.8,-41.6 582.28,-26.92"/>
<polygon fill="grey" stroke="grey" stroke-width="2" points="583.07,-23.51 572.54,-24.72 581.53,-30.34 583.07,-23.51"/>
</g>
<!-- 13 -->
<g id="node14" class="node">
<title>13</title>
<path fill="none" stroke="#56b9d8" stroke-width="2" d="M713.38,-540C713.38,-540 646.38,-540 646.38,-540 640.38,-540 634.38,-534 634.38,-528 634.38,-528 634.38,-516 634.38,-516 634.38,-510 640.38,-504 646.38,-504 646.38,-504 713.38,-504 713.38,-504 719.38,-504 725.38,-510 725.38,-516 725.38,-516 725.38,-528 725.38,-528 725.38,-534 719.38,-540 713.38,-540"/>
<text xml:space="preserve" text-anchor="middle" x="679.88" y="-518.12" font-family="sans" font-size="10.00">suggest_features</text>
</g>
<!-- 7&#45;&gt;13 -->
<g id="edge38" class="edge">
<title>7&#45;&gt;13</title>
<path fill="none" stroke="grey" stroke-width="2" d="M713.35,-647.15C709.68,-629.1 703.53,-600.45 696.88,-576 694.82,-568.45 692.36,-560.37 689.96,-552.85"/>
<polygon fill="grey" stroke="grey" stroke-width="2" points="693.32,-551.84 686.88,-543.43 686.66,-554.02 693.32,-551.84"/>
</g>
<!-- 15 -->
<g id="node16" class="node">
<title>15</title>
<path fill="none" stroke="#8fd856" stroke-width="2" d="M676,-612C676,-612 609.75,-612 609.75,-612 603.75,-612 597.75,-606 597.75,-600 597.75,-600 597.75,-588 597.75,-588 597.75,-582 603.75,-576 609.75,-576 609.75,-576 676,-576 676,-576 682,-576 688,-582 688,-588 688,-588 688,-600 688,-600 688,-606 682,-612 676,-612"/>
<text xml:space="preserve" text-anchor="middle" x="642.88" y="-590.12" font-family="sans" font-size="10.00">feature_selection</text>
</g>
<!-- 7&#45;&gt;15 -->
<g id="edge41" class="edge">
<title>7&#45;&gt;15</title>
<path fill="none" stroke="grey" stroke-width="2" d="M698.2,-647.34C690.03,-639.6 680.25,-630.36 671.21,-621.81"/>
<polygon fill="grey" stroke="grey" stroke-width="2" points="673.67,-619.31 664,-614.98 668.86,-624.4 673.67,-619.31"/>
</g>
<!-- 8&#45;&gt;7 -->
<g id="edge22" class="edge">
<title>8&#45;&gt;7</title>
<path fill="none" stroke="grey" stroke-width="2" d="M716.88,-719.34C716.88,-712.75 716.88,-705.08 716.88,-697.67"/>
<polygon fill="grey" stroke="grey" stroke-width="2" points="720.38,-697.93 716.88,-687.93 713.38,-697.93 720.38,-697.93"/>
</g>
<!-- 8&#45;&gt;15 -->
<g id="edge42" class="edge">
<title>8&#45;&gt;15</title>
<path fill="none" stroke="grey" stroke-width="2" d="M693.79,-719.09C683.2,-709.72 671.35,-697.41 663.88,-684 653.88,-666.08 648.63,-643.56 645.87,-625.67"/>
<polygon fill="grey" stroke="grey" stroke-width="2" points="649.34,-625.22 644.58,-615.76 642.4,-626.12 649.34,-625.22"/>
</g>
<!-- 9&#45;&gt;8 -->
<g id="edge26" class="edge">
<title>9&#45;&gt;8</title>
<path fill="none" stroke="grey" stroke-width="2" d="M716.88,-791.34C716.88,-784.75 716.88,-777.08 716.88,-769.67"/>
<polygon fill="grey" stroke="grey" stroke-width="2" points="720.38,-769.93 716.88,-759.93 713.38,-769.93 720.38,-769.93"/>
</g>
<!-- 10&#45;&gt;9 -->
<g id="edge30" class="edge">
<title>10&#45;&gt;9</title>
<path fill="none" stroke="grey" stroke-width="2" d="M717.62,-863.34C717.53,-856.75 717.42,-849.08 717.31,-841.67"/>
<polygon fill="grey" stroke="grey" stroke-width="2" points="720.82,-841.88 717.17,-831.93 713.82,-841.98 720.82,-841.88"/>
</g>
<!-- 11&#45;&gt;7 -->
<g id="edge21" class="edge">
<title>11&#45;&gt;7</title>
<path fill="none" stroke="grey" stroke-width="2" d="M752.34,-1019.72C835.55,-1009.17 963.88,-977.56 963.88,-883 963.88,-883 963.88,-883 963.88,-809 963.88,-721.86 846.9,-687.41 773.95,-674.39"/>
<polygon fill="grey" stroke="grey" stroke-width="2" points="774.75,-670.98 764.3,-672.77 773.59,-677.88 774.75,-670.98"/>
</g>
<!-- 11&#45;&gt;8 -->
<g id="edge24" class="edge">
<title>11&#45;&gt;8</title>
<path fill="none" stroke="grey" stroke-width="2" d="M752.45,-1011.98C774.57,-1004.19 796.69,-991.78 809.88,-972 834.5,-935.05 844.12,-894.23 782.88,-792 776.61,-781.54 767.47,-772.29 757.98,-764.57"/>
<polygon fill="grey" stroke="grey" stroke-width="2" points="760.17,-761.84 750.08,-758.62 755.96,-767.43 760.17,-761.84"/>
</g>
<!-- 11&#45;&gt;9 -->
<g id="edge28" class="edge">
<title>11&#45;&gt;9</title>
<path fill="none" stroke="grey" stroke-width="2" d="M664.72,-1007.12C656.33,-997.58 647.27,-985.12 642.88,-972 637.79,-956.83 641.45,-951.94 642.88,-936 645.78,-903.61 639.8,-892.27 655.88,-864 661.62,-853.9 670.03,-844.79 678.79,-837.08"/>
<polygon fill="grey" stroke="grey" stroke-width="2" points="680.81,-839.95 686.34,-830.91 676.38,-834.52 680.81,-839.95"/>
</g>
<!-- 11&#45;&gt;10 -->
<g id="edge32" class="edge">
<title>11&#45;&gt;10</title>
<path fill="none" stroke="grey" stroke-width="2" d="M749.71,-1007.03C766.67,-999.12 782.9,-987.89 792.88,-972 801.39,-958.45 800.23,-950.21 792.88,-936 787.11,-924.86 777.8,-915.56 767.68,-908.03"/>
<polygon fill="grey" stroke="grey" stroke-width="2" points="769.71,-905.17 759.46,-902.5 765.8,-910.98 769.71,-905.17"/>
</g>
<!-- 12 -->
<g id="node13" class="node">
<title>12</title>
<path fill="none" stroke="#56d86b" stroke-width="2" d="M772,-972C772,-972 663.75,-972 663.75,-972 657.75,-972 651.75,-966 651.75,-960 651.75,-960 651.75,-948 651.75,-948 651.75,-942 657.75,-936 663.75,-936 663.75,-936 772,-936 772,-936 778,-936 784,-942 784,-948 784,-948 784,-960 784,-960 784,-966 778,-972 772,-972"/>
<text xml:space="preserve" text-anchor="middle" x="717.88" y="-950.12" font-family="sans" font-size="10.00">generate_trending_classes</text>
</g>
<!-- 11&#45;&gt;12 -->
<g id="edge37" class="edge">
<title>11&#45;&gt;12</title>
<path fill="none" stroke="grey" stroke-width="2" d="M691.71,-1007.34C695.2,-1000.34 699.32,-992.12 703.23,-984.28"/>
<polygon fill="grey" stroke="grey" stroke-width="2" points="706.23,-986.12 707.57,-975.61 699.97,-982.99 706.23,-986.12"/>
</g>
<!-- 14 -->
<g id="node15" class="node">
<title>14</title>
<path fill="none" stroke="#56a9d8" stroke-width="2" d="M602.75,-540C602.75,-540 547,-540 547,-540 541,-540 535,-534 535,-528 535,-528 535,-516 535,-516 535,-510 541,-504 547,-504 547,-504 602.75,-504 602.75,-504 608.75,-504 614.75,-510 614.75,-516 614.75,-516 614.75,-528 614.75,-528 614.75,-534 608.75,-540 602.75,-540"/>
<text xml:space="preserve" text-anchor="middle" x="574.88" y="-518.12" font-family="sans" font-size="10.00">train_approach</text>
</g>
<!-- 11&#45;&gt;14 -->
<g id="edge40" class="edge">
<title>11&#45;&gt;14</title>
<path fill="none" stroke="grey" stroke-width="2" d="M647.05,-1007.07C607.06,-984.21 547.88,-940.66 547.88,-883 547.88,-883 547.88,-883 547.88,-665 547.88,-625.79 557.93,-581.54 565.77,-553.02"/>
<polygon fill="grey" stroke="grey" stroke-width="2" points="569.07,-554.21 568.45,-543.64 562.34,-552.29 569.07,-554.21"/>
</g>
<!-- 11&#45;&gt;18 -->
<g id="edge47" class="edge">
<title>11&#45;&gt;18</title>
<path fill="none" stroke="grey" stroke-width="2" d="M613.4,-1020.4C528.46,-1010.57 395.88,-979.73 395.88,-883 395.88,-883 395.88,-883 395.88,-521 395.88,-480.11 377.49,-436.04 363.25,-408.02"/>
<polygon fill="grey" stroke="grey" stroke-width="2" points="366.45,-406.59 358.68,-399.38 360.26,-409.86 366.45,-406.59"/>
</g>
<!-- 11&#45;&gt;19 -->
<g id="edge50" class="edge">
<title>11&#45;&gt;19</title>
<path fill="none" stroke="grey" stroke-width="2" d="M613.18,-1015.51C539.52,-1001.11 433.88,-965.98 433.88,-883 433.88,-883 433.88,-883 433.88,-521 433.88,-480.25 436.37,-467.77 455.88,-432 460.94,-422.71 468.04,-413.83 475.3,-406.08"/>
<polygon fill="grey" stroke="grey" stroke-width="2" points="477.7,-408.63 482.3,-399.08 472.75,-403.68 477.7,-408.63"/>
</g>
<!-- 12&#45;&gt;10 -->
<g id="edge34" class="edge">
<title>12&#45;&gt;10</title>
<path fill="none" stroke="grey" stroke-width="2" d="M717.88,-935.34C717.88,-928.75 717.88,-921.08 717.88,-913.67"/>
<polygon fill="grey" stroke="grey" stroke-width="2" points="721.38,-913.93 717.88,-903.93 714.38,-913.93 721.38,-913.93"/>
</g>
<!-- 13&#45;&gt;0 -->
<g id="edge12" class="edge">
<title>13&#45;&gt;0</title>
<path fill="none" stroke="grey" stroke-width="2" d="M679.88,-503.07C679.88,-476.13 679.88,-423.62 679.88,-379 679.88,-379 679.88,-379 679.88,-161 679.88,-103.93 621.85,-61.17 581.05,-38.15"/>
<polygon fill="grey" stroke="grey" stroke-width="2" points="582.92,-35.19 572.46,-33.5 579.58,-41.34 582.92,-35.19"/>
</g>
<!-- 14&#45;&gt;0 -->
<g id="edge1" class="edge">
<title>14&#45;&gt;0</title>
<path fill="none" stroke="grey" stroke-width="2" d="M589.41,-503.43C609.12,-477.78 641.88,-427.79 641.88,-379 641.88,-379 641.88,-379 641.88,-161 641.88,-113.8 604.48,-71.23 575.43,-45.27"/>
<polygon fill="grey" stroke="grey" stroke-width="2" points="577.74,-42.64 567.87,-38.78 573.17,-47.95 577.74,-42.64"/>
</g>
<!-- 16 -->
<g id="node17" class="node">
<title>16</title>
<path fill="none" stroke="#56d8b9" stroke-width="2" d="M534.88,-468C534.88,-468 476.88,-468 476.88,-468 470.88,-468 464.88,-462 464.88,-456 464.88,-456 464.88,-444 464.88,-444 464.88,-438 470.88,-432 476.88,-432 476.88,-432 534.88,-432 534.88,-432 540.88,-432 546.88,-438 546.88,-444 546.88,-444 546.88,-456 546.88,-456 546.88,-462 540.88,-468 534.88,-468"/>
<text xml:space="preserve" text-anchor="middle" x="505.88" y="-446.12" font-family="sans" font-size="10.00">select_portfolio</text>
</g>
<!-- 14&#45;&gt;16 -->
<g id="edge43" class="edge">
<title>14&#45;&gt;16</title>
<path fill="none" stroke="grey" stroke-width="2" d="M557.46,-503.34C549.92,-495.69 540.92,-486.56 532.57,-478.08"/>
<polygon fill="grey" stroke="grey" stroke-width="2" points="535.16,-475.72 525.65,-471.06 530.17,-480.64 535.16,-475.72"/>
</g>
<!-- 14&#45;&gt;19 -->
<g id="edge52" class="edge">
<title>14&#45;&gt;19</title>
<path fill="none" stroke="grey" stroke-width="2" d="M573.91,-503.33C572.27,-484.65 567.84,-454.8 555.88,-432 550.96,-422.63 543.91,-413.72 536.66,-405.98"/>
<polygon fill="grey" stroke="grey" stroke-width="2" points="539.19,-403.56 529.64,-398.98 534.25,-408.52 539.19,-403.56"/>
</g>
<!-- 15&#45;&gt;14 -->
<g id="edge39" class="edge">
<title>15&#45;&gt;14</title>
<path fill="none" stroke="grey" stroke-width="2" d="M625.72,-575.34C618.28,-567.69 609.41,-558.56 601.18,-550.08"/>
<polygon fill="grey" stroke="grey" stroke-width="2" points="603.85,-547.81 594.37,-543.07 598.83,-552.68 603.85,-547.81"/>
</g>
<!-- 16&#45;&gt;0 -->
<g id="edge8" class="edge">
<title>16&#45;&gt;0</title>
<path fill="none" stroke="grey" stroke-width="2" d="M543.56,-431.24C558.2,-422.55 573.84,-410.75 583.88,-396 606.68,-362.48 603.88,-347.54 603.88,-307 603.88,-307 603.88,-307 603.88,-161 603.88,-118.68 580.46,-74.75 562.41,-47.17"/>
<polygon fill="grey" stroke="grey" stroke-width="2" points="565.54,-45.55 557.03,-39.25 559.75,-49.49 565.54,-45.55"/>
</g>
<!-- 16&#45;&gt;18 -->
<g id="edge48" class="edge">
<title>16&#45;&gt;18</title>
<path fill="none" stroke="grey" stroke-width="2" d="M465.34,-431.15C445.33,-422.34 420.94,-411.61 399.5,-402.17"/>
<polygon fill="grey" stroke="grey" stroke-width="2" points="400.94,-398.98 390.38,-398.15 398.12,-405.39 400.94,-398.98"/>
</g>
<!-- 16&#45;&gt;19 -->
<g id="edge51" class="edge">
<title>16&#45;&gt;19</title>
<path fill="none" stroke="grey" stroke-width="2" d="M505.88,-431.34C505.88,-424.75 505.88,-417.08 505.88,-409.67"/>
<polygon fill="grey" stroke="grey" stroke-width="2" points="509.38,-409.93 505.88,-399.93 502.38,-409.93 509.38,-409.93"/>
</g>
<!-- 17 -->
<g id="node18" class="node">
<title>17</title>
<path fill="none" stroke="#56d87b" stroke-width="2" d="M520.25,-324C520.25,-324 419.5,-324 419.5,-324 413.5,-324 407.5,-318 407.5,-312 407.5,-312 407.5,-300 407.5,-300 407.5,-294 413.5,-288 419.5,-288 419.5,-288 520.25,-288 520.25,-288 526.25,-288 532.25,-294 532.25,-300 532.25,-300 532.25,-312 532.25,-312 532.25,-318 526.25,-324 520.25,-324"/>
<text xml:space="preserve" text-anchor="middle" x="469.88" y="-302.12" font-family="sans" font-size="10.00">merge_submission_parts</text>
</g>
<!-- 17&#45;&gt;0 -->
<g id="edge2" class="edge">
<title>17&#45;&gt;0</title>
<path fill="none" stroke="grey" stroke-width="2" d="M485.45,-287.08C504.27,-264.11 534.93,-222.18 546.88,-180 559.35,-135.97 553.83,-82.46 548.23,-49.56"/>
<polygon fill="grey" stroke="grey" stroke-width="2" points="551.68,-48.99 546.43,-39.79 544.8,-50.26 551.68,-48.99"/>
</g>
<!-- 21 -->
<g id="node22" class="node">
<title>21</title>
<path fill="none" stroke="#56d0d8" stroke-width="2" d="M405.88,-252C405.88,-252 341.88,-252 341.88,-252 335.88,-252 329.88,-246 329.88,-240 329.88,-240 329.88,-228 329.88,-228 329.88,-222 335.88,-216 341.88,-216 341.88,-216 405.88,-216 405.88,-216 411.88,-216 417.88,-222 417.88,-228 417.88,-228 417.88,-240 417.88,-240 417.88,-246 411.88,-252 405.88,-252"/>
<text xml:space="preserve" text-anchor="middle" x="373.88" y="-230.12" font-family="sans" font-size="10.00">submit_to_portal</text>
</g>
<!-- 17&#45;&gt;21 -->
<g id="edge54" class="edge">
<title>17&#45;&gt;21</title>
<path fill="none" stroke="grey" stroke-width="2" d="M445.4,-287.15C434.23,-279.01 420.8,-269.22 408.61,-260.33"/>
<polygon fill="grey" stroke="grey" stroke-width="2" points="410.89,-257.66 400.75,-254.6 406.77,-263.32 410.89,-257.66"/>
</g>
<!-- 23 -->
<g id="node24" class="node">
<title>23</title>
<path fill="none" stroke="#d86e56" stroke-width="2" d="M525.88,-180C525.88,-180 413.88,-180 413.88,-180 407.88,-180 401.88,-174 401.88,-168 401.88,-168 401.88,-156 401.88,-156 401.88,-150 407.88,-144 413.88,-144 413.88,-144 525.88,-144 525.88,-144 531.88,-144 537.88,-150 537.88,-156 537.88,-156 537.88,-168 537.88,-168 537.88,-174 531.88,-180 525.88,-180"/>
<text xml:space="preserve" text-anchor="middle" x="469.88" y="-158.12" font-family="sans" font-size="10.00">analyze_submission_tuning</text>
</g>
<!-- 17&#45;&gt;23 -->
<g id="edge56" class="edge">
<title>17&#45;&gt;23</title>
<path fill="none" stroke="grey" stroke-width="2" d="M469.88,-287.02C469.88,-263.54 469.88,-222.11 469.88,-193.64"/>
<polygon fill="grey" stroke="grey" stroke-width="2" points="473.38,-193.87 469.88,-183.87 466.38,-193.87 473.38,-193.87"/>
</g>
<!-- 18&#45;&gt;17 -->
<g id="edge45" class="edge">
<title>18&#45;&gt;17</title>
<path fill="none" stroke="grey" stroke-width="2" d="M378.23,-359.15C393.12,-350.68 411.15,-340.42 427.26,-331.25"/>
<polygon fill="grey" stroke="grey" stroke-width="2" points="428.99,-334.3 435.95,-326.31 425.52,-328.21 428.99,-334.3"/>
</g>
<!-- 19&#45;&gt;17 -->
<g id="edge44" class="edge">
<title>19&#45;&gt;17</title>
<path fill="none" stroke="grey" stroke-width="2" d="M496.79,-359.34C493.19,-352.34 488.96,-344.12 484.93,-336.28"/>
<polygon fill="grey" stroke="grey" stroke-width="2" points="488.15,-334.89 480.47,-327.59 481.93,-338.09 488.15,-334.89"/>
</g>
<!-- 20 -->
<g id="node21" class="node">
<title>20</title>
<path fill="none" stroke="#d87d56" stroke-width="2" d="M333.62,-180C333.62,-180 262.12,-180 262.12,-180 256.12,-180 250.12,-174 250.12,-168 250.12,-168 250.12,-156 250.12,-156 250.12,-150 256.12,-144 262.12,-144 262.12,-144 333.62,-144 333.62,-144 339.62,-144 345.62,-150 345.62,-156 345.62,-156 345.62,-168 345.62,-168 345.62,-174 339.62,-180 333.62,-180"/>
<text xml:space="preserve" text-anchor="middle" x="297.88" y="-158.12" font-family="sans" font-size="10.00">archive_score_run</text>
</g>
<!-- 20&#45;&gt;0 -->
<g id="edge5" class="edge">
<title>20&#45;&gt;0</title>
<path fill="none" stroke="grey" stroke-width="2" d="M286.32,-143.26C275.18,-123.69 262.26,-92.29 278.88,-72 306.55,-38.2 434.87,-25.48 501.48,-21.09"/>
<polygon fill="grey" stroke="grey" stroke-width="2" points="501.53,-24.59 511.3,-20.48 501.1,-17.61 501.53,-24.59"/>
</g>
<!-- 22 -->
<g id="node23" class="node">
<title>22</title>
<path fill="none" stroke="#d8cb56" stroke-width="2" d="M386.12,-108C386.12,-108 299.62,-108 299.62,-108 293.62,-108 287.62,-102 287.62,-96 287.62,-96 287.62,-84 287.62,-84 287.62,-78 293.62,-72 299.62,-72 299.62,-72 386.12,-72 386.12,-72 392.12,-72 398.12,-78 398.12,-84 398.12,-84 398.12,-96 398.12,-96 398.12,-102 392.12,-108 386.12,-108"/>
<text xml:space="preserve" text-anchor="middle" x="342.88" y="-86.12" font-family="sans" font-size="10.00">copy_best_online_run</text>
</g>
<!-- 20&#45;&gt;22 -->
<g id="edge55" class="edge">
<title>20&#45;&gt;22</title>
<path fill="none" stroke="grey" stroke-width="2" d="M309.23,-143.34C313.83,-136.18 319.26,-127.73 324.41,-119.73"/>
<polygon fill="grey" stroke="grey" stroke-width="2" points="327.27,-121.75 329.73,-111.45 321.38,-117.97 327.27,-121.75"/>
</g>
<!-- 21&#45;&gt;0 -->
<g id="edge13" class="edge">
<title>21&#45;&gt;0</title>
<path fill="none" stroke="grey" stroke-width="2" d="M374.32,-215.03C375.53,-196.12 379.6,-166.07 392.88,-144 419.77,-99.29 468.49,-63.01 502.88,-41.27"/>
<polygon fill="grey" stroke="grey" stroke-width="2" points="504.68,-44.27 511.37,-36.05 501.02,-38.31 504.68,-44.27"/>
</g>
<!-- 21&#45;&gt;20 -->
<g id="edge53" class="edge">
<title>21&#45;&gt;20</title>
<path fill="none" stroke="grey" stroke-width="2" d="M354.7,-215.34C346.21,-207.52 336.05,-198.16 326.68,-189.53"/>
<polygon fill="grey" stroke="grey" stroke-width="2" points="329.26,-187.15 319.54,-182.95 324.52,-192.3 329.26,-187.15"/>
</g>
<!-- 22&#45;&gt;0 -->
<g id="edge4" class="edge">
<title>22&#45;&gt;0</title>
<path fill="none" stroke="grey" stroke-width="2" d="M393.86,-71.06C427.47,-59.24 470.84,-43.99 501.94,-33.05"/>
<polygon fill="grey" stroke="grey" stroke-width="2" points="502.91,-36.42 511.18,-29.8 500.58,-29.81 502.91,-36.42"/>
</g>
<!-- 23&#45;&gt;0 -->
<g id="edge6" class="edge">
<title>23&#45;&gt;0</title>
<path fill="none" stroke="grey" stroke-width="2" d="M478.99,-143.02C491.11,-119.12 512.67,-76.59 527.12,-48.1"/>
<polygon fill="grey" stroke="grey" stroke-width="2" points="530.06,-50.04 531.46,-39.54 523.82,-46.87 530.06,-50.04"/>
</g>
</g>
</svg>
