<?xml version="1.0" encoding="UTF-8" standalone="no"?>
<!DOCTYPE svg PUBLIC "-//W3C//DTD SVG 1.1//EN"
 "http://www.w3.org/Graphics/SVG/1.1/DTD/svg11.dtd">
<!-- Generated by graphviz version 14.0.2 (20251019.1705)
 -->
<!-- Title: snakemake_dag Pages: 1 -->
<svg width="726pt" height="1196pt"
 viewBox="0.00 0.00 726.00 1196.00" xmlns="http://www.w3.org/2000/svg" xmlns:xlink="http://www.w3.org/1999/xlink">
<g id="graph0" class="graph" transform="scale(1 1) rotate(0) translate(4 1192)">
<title>snakemake_dag</title>
<polygon fill="white" stroke="none" points="-4,4 -4,-1192 721.88,-1192 721.88,4 -4,4"/>
<!-- 0 -->
<g id="node1" class="node">
<title>0</title>
<path fill="none" stroke="#d85656" stroke-width="2" d="M388.88,-36C388.88,-36 358.88,-36 358.88,-36 352.88,-36 346.88,-30 346.88,-24 346.88,-24 346.88,-12 346.88,-12 346.88,-6 352.88,0 358.88,0 358.88,0 388.88,0 388.88,0 394.88,0 400.88,-6 400.88,-12 400.88,-12 400.88,-24 400.88,-24 400.88,-30 394.88,-36 388.88,-36"/>
<text xml:space="preserve" text-anchor="middle" x="373.88" y="-14.12" font-family="sans" font-size="10.00">all</text>
</g>
<!-- 1 -->
<g id="node2" class="node">
<title>1</title>
<path fill="none" stroke="#61d856" stroke-width="2" d="M91.75,-108C91.75,-108 12,-108 12,-108 6,-108 0,-102 0,-96 0,-96 0,-84 0,-84 0,-78 6,-72 12,-72 12,-72 91.75,-72 91.75,-72 97.75,-72 103.75,-78 103.75,-84 103.75,-84 103.75,-96 103.75,-96 103.75,-102 97.75,-108 91.75,-108"/>
<text xml:space="preserve" text-anchor="middle" x="51.88" y="-86.12" font-family="sans" font-size="10.00">generate_dag_graph</text>
</g>
<!-- 1&#45;&gt;0 -->
<g id="edge6" class="edge">
<title>1&#45;&gt;0</title>
<path fill="none" stroke="grey" stroke-width="2" d="M104.42,-75.22C108.96,-74.11 113.5,-73.02 117.88,-72 193.77,-54.38 282.99,-36.56 333.54,-26.73"/>
<polygon fill="grey" stroke="grey" stroke-width="2" points="334,-30.21 343.15,-24.87 332.67,-23.33 334,-30.21"/>
</g>
<!-- 2 -->
<g id="node3" class="node">
<title>2</title>
<path fill="none" stroke="#d8a456" stroke-width="2" d="M390,-1188C390,-1188 317.75,-1188 317.75,-1188 311.75,-1188 305.75,-1182 305.75,-1176 305.75,-1176 305.75,-1164 305.75,-1164 305.75,-1158 311.75,-1152 317.75,-1152 317.75,-1152 390,-1152 390,-1152 396,-1152 402,-1158 402,-1164 402,-1164 402,-1176 402,-1176 402,-1182 396,-1188 390,-1188"/>
<text xml:space="preserve" text-anchor="middle" x="353.88" y="-1166.12" font-family="sans" font-size="10.00">clean_plis_training</text>
</g>
<!-- 2&#45;&gt;0 -->
<g id="edge8" class="edge">
<title>2&#45;&gt;0</title>
<path fill="none" stroke="grey" stroke-width="2" d="M304.88,-1160.23C239.5,-1145.38 131.88,-1108.55 131.88,-1027 131.88,-1027 131.88,-1027 131.88,-161 131.88,-114.73 149.05,-100 185.88,-72 229.29,-38.99 292.35,-26.54 333.24,-21.84"/>
<polygon fill="grey" stroke="grey" stroke-width="2" points="333.59,-25.32 343.18,-20.83 332.88,-18.36 333.59,-25.32"/>
</g>
<!-- 3 -->
<g id="node4" class="node">
<title>3</title>
<path fill="none" stroke="#d88556" stroke-width="2" d="M633.38,-1116C633.38,-1116 548.38,-1116 548.38,-1116 542.38,-1116 536.38,-1110 536.38,-1104 536.38,-1104 536.38,-1092 536.38,-1092 536.38,-1086 542.38,-1080 548.38,-1080 548.38,-1080 633.38,-1080 633.38,-1080 639.38,-1080 645.38,-1086 645.38,-1092 645.38,-1092 645.38,-1104 645.38,-1104 645.38,-1110 639.38,-1116 633.38,-1116"/>
<text xml:space="preserve" text-anchor="middle" x="590.88" y="-1094.12" font-family="sans" font-size="10.00">build_customer_meta</text>
</g>
<!-- 2&#45;&gt;3 -->
<g id="edge13" class="edge">
<title>2&#45;&gt;3</title>
<path fill="none" stroke="grey" stroke-width="2" d="M402.98,-1154.5C437.85,-1144.2 485.09,-1130.24 523.48,-1118.9"/>
<polygon fill="grey" stroke="grey" stroke-width="2" points="524.11,-1122.37 532.71,-1116.18 522.13,-1115.66 524.11,-1122.37"/>
</g>
<!-- 4 -->
<g id="node5" class="node">
<title>4</title>
<path fill="none" stroke="#56d863" stroke-width="2" d="M280,-972C280,-972 171.75,-972 171.75,-972 165.75,-972 159.75,-966 159.75,-960 159.75,-960 159.75,-948 159.75,-948 159.75,-942 165.75,-936 171.75,-936 171.75,-936 280,-936 280,-936 286,-936 292,-942 292,-948 292,-948 292,-960 292,-960 292,-966 286,-972 280,-972"/>
<text xml:space="preserve" text-anchor="middle" x="225.88" y="-950.12" font-family="sans" font-size="10.00">generate_exploration_plots</text>
</g>
<!-- 2&#45;&gt;4 -->
<g id="edge14" class="edge">
<title>2&#45;&gt;4</title>
<path fill="none" stroke="grey" stroke-width="2" d="M343.18,-1151.12C321.06,-1114.14 270.11,-1028.96 243.22,-984"/>
<polygon fill="grey" stroke="grey" stroke-width="2" points="246.32,-982.36 238.18,-975.57 240.31,-985.95 246.32,-982.36"/>
</g>
<!-- 5 -->
<g id="node6" class="node">
<title>5</title>
<path fill="none" stroke="#56d87b" stroke-width="2" d="M514,-1044C514,-1044 393.75,-1044 393.75,-1044 387.75,-1044 381.75,-1038 381.75,-1032 381.75,-1032 381.75,-1020 381.75,-1020 381.75,-1014 387.75,-1008 393.75,-1008 393.75,-1008 514,-1008 514,-1008 520,-1008 526,-1014 526,-1020 526,-1020 526,-1032 526,-1032 526,-1038 520,-1044 514,-1044"/>
<text xml:space="preserve" text-anchor="middle" x="453.88" y="-1022.12" font-family="sans" font-size="10.00">prepare_split_customer_meta</text>
</g>
<!-- 2&#45;&gt;5 -->
<g id="edge16" class="edge">
<title>2&#45;&gt;5</title>
<path fill="none" stroke="grey" stroke-width="2" d="M366.54,-1151.02C383.52,-1126.9 413.85,-1083.83 433.92,-1055.34"/>
<polygon fill="grey" stroke="grey" stroke-width="2" points="436.67,-1057.5 439.57,-1047.31 430.95,-1053.47 436.67,-1057.5"/>
</g>
<!-- 11 -->
<g id="node12" class="node">
<title>11</title>
<path fill="none" stroke="#56d8c9" stroke-width="2" d="M473.62,-972C473.62,-972 360.12,-972 360.12,-972 354.12,-972 348.12,-966 348.12,-960 348.12,-960 348.12,-948 348.12,-948 348.12,-942 354.12,-936 360.12,-936 360.12,-936 473.62,-936 473.62,-936 479.62,-936 485.62,-942 485.62,-948 485.62,-948 485.62,-960 485.62,-960 485.62,-966 479.62,-972 473.62,-972"/>
<text xml:space="preserve" text-anchor="middle" x="416.88" y="-950.12" font-family="sans" font-size="10.00">split_plis_training_validation</text>
</g>
<!-- 2&#45;&gt;11 -->
<g id="edge29" class="edge">
<title>2&#45;&gt;11</title>
<path fill="none" stroke="grey" stroke-width="2" d="M352.77,-1151.25C351.55,-1120.66 352.02,-1056.63 372.88,-1008 376.76,-998.93 382.72,-990.21 389,-982.54"/>
<polygon fill="grey" stroke="grey" stroke-width="2" points="391.59,-984.89 395.6,-975.08 386.35,-980.25 391.59,-984.89"/>
</g>
<!-- 3&#45;&gt;0 -->
<g id="edge9" class="edge">
<title>3&#45;&gt;0</title>
<path fill="none" stroke="grey" stroke-width="2" d="M623.58,-1079.14C661.21,-1055.92 717.88,-1011.56 717.88,-955 717.88,-955 717.88,-955 717.88,-161 717.88,-96.02 505.51,-45.49 414.5,-26.82"/>
<polygon fill="grey" stroke="grey" stroke-width="2" points="415.2,-23.39 404.7,-24.84 413.81,-30.25 415.2,-23.39"/>
</g>
<!-- 3&#45;&gt;5 -->
<g id="edge17" class="edge">
<title>3&#45;&gt;5</title>
<path fill="none" stroke="grey" stroke-width="2" d="M555.95,-1079.15C539.04,-1070.52 518.51,-1060.02 500.3,-1050.72"/>
<polygon fill="grey" stroke="grey" stroke-width="2" points="501.93,-1047.62 491.43,-1046.19 498.74,-1053.86 501.93,-1047.62"/>
</g>
<!-- 7 -->
<g id="node8" class="node">
<title>7</title>
<path fill="none" stroke="#d8d356" stroke-width="2" d="M588.88,-684C588.88,-684 482.88,-684 482.88,-684 476.88,-684 470.88,-678 470.88,-672 470.88,-672 470.88,-660 470.88,-660 470.88,-654 476.88,-648 482.88,-648 482.88,-648 588.88,-648 588.88,-648 594.88,-648 600.88,-654 600.88,-660 600.88,-660 600.88,-672 600.88,-672 600.88,-678 594.88,-684 588.88,-684"/>
<text xml:space="preserve" text-anchor="middle" x="535.88" y="-662.12" font-family="sans" font-size="10.00">engineer_features_derived</text>
</g>
<!-- 3&#45;&gt;7 -->
<g id="edge22" class="edge">
<title>3&#45;&gt;7</title>
<path fill="none" stroke="grey" stroke-width="2" d="M611.52,-1079.07C637.81,-1054.12 679.88,-1006.21 679.88,-955 679.88,-955 679.88,-955 679.88,-809 679.88,-768.46 685.81,-751.17 659.88,-720 647.83,-705.52 631.11,-694.91 613.85,-687.17"/>
<polygon fill="grey" stroke="grey" stroke-width="2" points="615.24,-683.95 604.66,-683.4 612.58,-690.43 615.24,-683.95"/>
</g>
<!-- 10 -->
<g id="node11" class="node">
<title>10</title>
<path fill="none" stroke="#78d856" stroke-width="2" d="M631.88,-900C631.88,-900 549.88,-900 549.88,-900 543.88,-900 537.88,-894 537.88,-888 537.88,-888 537.88,-876 537.88,-876 537.88,-870 543.88,-864 549.88,-864 549.88,-864 631.88,-864 631.88,-864 637.88,-864 643.88,-870 643.88,-876 643.88,-876 643.88,-888 643.88,-888 643.88,-894 637.88,-900 631.88,-900"/>
<text xml:space="preserve" text-anchor="middle" x="590.88" y="-878.12" font-family="sans" font-size="10.00">generate_candidates</text>
</g>
<!-- 3&#45;&gt;10 -->
<g id="edge27" class="edge">
<title>3&#45;&gt;10</title>
<path fill="none" stroke="grey" stroke-width="2" d="M590.88,-1079.12C590.88,-1042.62 590.88,-959.13 590.88,-913.74"/>
<polygon fill="grey" stroke="grey" stroke-width="2" points="594.38,-914 590.88,-904 587.38,-914 594.38,-914"/>
</g>
<!-- 4&#45;&gt;0 -->
<g id="edge12" class="edge">
<title>4&#45;&gt;0</title>
<path fill="none" stroke="grey" stroke-width="2" d="M214.85,-935.38C199.58,-909.26 173.88,-858.26 173.88,-811 173.88,-811 173.88,-811 173.88,-161 173.88,-114.5 192.83,-101.38 228.88,-72 259.23,-47.26 302.18,-33.49 333.45,-26.23"/>
<polygon fill="grey" stroke="grey" stroke-width="2" points="334.07,-29.68 343.11,-24.15 332.59,-22.84 334.07,-29.68"/>
</g>
<!-- 5&#45;&gt;4 -->
<g id="edge15" class="edge">
<title>5&#45;&gt;4</title>
<path fill="none" stroke="grey" stroke-width="2" d="M395.46,-1007.06C365.29,-997.8 328.24,-986.43 296.48,-976.68"/>
<polygon fill="grey" stroke="grey" stroke-width="2" points="297.62,-973.37 287.04,-973.78 295.57,-980.06 297.62,-973.37"/>
</g>
<!-- 5&#45;&gt;7 -->
<g id="edge23" class="edge">
<title>5&#45;&gt;7</title>
<path fill="none" stroke="grey" stroke-width="2" d="M471.32,-1007.4C479.83,-997.74 489.4,-985.09 494.88,-972 500.15,-959.38 523.22,-771.83 532.24,-697.25"/>
<polygon fill="grey" stroke="grey" stroke-width="2" points="535.67,-698.06 533.39,-687.72 528.72,-697.22 535.67,-698.06"/>
</g>
<!-- 5&#45;&gt;10 -->
<g id="edge28" class="edge">
<title>5&#45;&gt;10</title>
<path fill="none" stroke="grey" stroke-width="2" d="M483.38,-1007.17C497.69,-997.72 514.61,-985.33 527.88,-972 545.92,-953.86 562.47,-930.06 574.08,-911.64"/>
<polygon fill="grey" stroke="grey" stroke-width="2" points="576.97,-913.63 579.21,-903.27 571,-909.96 576.97,-913.63"/>
</g>
<!-- 5&#45;&gt;11 -->
<g id="edge30" class="edge">
<title>5&#45;&gt;11</title>
<path fill="none" stroke="grey" stroke-width="2" d="M444.54,-1007.34C440.84,-1000.34 436.49,-992.12 432.35,-984.28"/>
<polygon fill="grey" stroke="grey" stroke-width="2" points="435.52,-982.78 427.75,-975.58 429.33,-986.05 435.52,-982.78"/>
</g>
<!-- 16 -->
<g id="node17" class="node">
<title>16</title>
<path fill="none" stroke="#5673d8" stroke-width="2" d="M375.38,-324C375.38,-324 278.38,-324 278.38,-324 272.38,-324 266.38,-318 266.38,-312 266.38,-312 266.38,-300 266.38,-300 266.38,-294 272.38,-288 278.38,-288 278.38,-288 375.38,-288 375.38,-288 381.38,-288 387.38,-294 387.38,-300 387.38,-300 387.38,-312 387.38,-312 387.38,-318 381.38,-324 375.38,-324"/>
<text xml:space="preserve" text-anchor="middle" x="326.88" y="-302.12" font-family="sans" font-size="10.00">write_submission_warm</text>
</g>
<!-- 5&#45;&gt;16 -->
<g id="edge39" class="edge">
<title>5&#45;&gt;16</title>
<path fill="none" stroke="grey" stroke-width="2" d="M388.31,-1007.06C369.91,-999.08 351.51,-987.79 338.88,-972 313.61,-940.41 319.88,-923.45 319.88,-883 319.88,-883 319.88,-883 319.88,-449 319.88,-410.61 322.46,-366.45 324.49,-337.7"/>
<polygon fill="grey" stroke="grey" stroke-width="2" points="327.96,-338.17 325.2,-327.94 320.98,-337.66 327.96,-338.17"/>
</g>
<!-- 6 -->
<g id="node7" class="node">
<title>6</title>
<path fill="none" stroke="#afd856" stroke-width="2" d="M503.5,-612C503.5,-612 440.25,-612 440.25,-612 434.25,-612 428.25,-606 428.25,-600 428.25,-600 428.25,-588 428.25,-588 428.25,-582 434.25,-576 440.25,-576 440.25,-576 503.5,-576 503.5,-576 509.5,-576 515.5,-582 515.5,-588 515.5,-588 515.5,-600 515.5,-600 515.5,-606 509.5,-612 503.5,-612"/>
<text xml:space="preserve" text-anchor="middle" x="471.88" y="-590.12" font-family="sans" font-size="10.00">feature_analysis</text>
</g>
<!-- 6&#45;&gt;0 -->
<g id="edge11" class="edge">
<title>6&#45;&gt;0</title>
<path fill="none" stroke="grey" stroke-width="2" d="M469.29,-575.22C465.8,-551 459.51,-506.27 454.88,-468 433.61,-292.29 476.88,-237.01 412.88,-72 409.45,-63.17 404.15,-54.5 398.55,-46.81"/>
<polygon fill="grey" stroke="grey" stroke-width="2" points="401.4,-44.77 392.47,-39.06 395.89,-49.09 401.4,-44.77"/>
</g>
<!-- 12 -->
<g id="node13" class="node">
<title>12</title>
<path fill="none" stroke="#56b9d8" stroke-width="2" d="M641.38,-468C641.38,-468 574.38,-468 574.38,-468 568.38,-468 562.38,-462 562.38,-456 562.38,-456 562.38,-444 562.38,-444 562.38,-438 568.38,-432 574.38,-432 574.38,-432 641.38,-432 641.38,-432 647.38,-432 653.38,-438 653.38,-444 653.38,-444 653.38,-456 653.38,-456 653.38,-462 647.38,-468 641.38,-468"/>
<text xml:space="preserve" text-anchor="middle" x="607.88" y="-446.12" font-family="sans" font-size="10.00">suggest_features</text>
</g>
<!-- 6&#45;&gt;12 -->
<g id="edge31" class="edge">
<title>6&#45;&gt;12</title>
<path fill="none" stroke="grey" stroke-width="2" d="M471.17,-575.31C471.32,-555.79 474.43,-524.43 490.88,-504 499.11,-493.77 524.56,-481.72 549.62,-471.71"/>
<polygon fill="grey" stroke="grey" stroke-width="2" points="550.56,-475.1 558.61,-468.21 548.02,-468.57 550.56,-475.1"/>
</g>
<!-- 14 -->
<g id="node15" class="node">
<title>14</title>
<path fill="none" stroke="#97d856" stroke-width="2" d="M578,-540C578,-540 511.75,-540 511.75,-540 505.75,-540 499.75,-534 499.75,-528 499.75,-528 499.75,-516 499.75,-516 499.75,-510 505.75,-504 511.75,-504 511.75,-504 578,-504 578,-504 584,-504 590,-510 590,-516 590,-516 590,-528 590,-528 590,-534 584,-540 578,-540"/>
<text xml:space="preserve" text-anchor="middle" x="544.88" y="-518.12" font-family="sans" font-size="10.00">feature_selection</text>
</g>
<!-- 6&#45;&gt;14 -->
<g id="edge35" class="edge">
<title>6&#45;&gt;14</title>
<path fill="none" stroke="grey" stroke-width="2" d="M490.3,-575.34C498.36,-567.6 508,-558.36 516.92,-549.81"/>
<polygon fill="grey" stroke="grey" stroke-width="2" points="519.23,-552.44 524.02,-543 514.38,-547.39 519.23,-552.44"/>
</g>
<!-- 7&#45;&gt;6 -->
<g id="edge18" class="edge">
<title>7&#45;&gt;6</title>
<path fill="none" stroke="grey" stroke-width="2" d="M519.73,-647.34C512.81,-639.77 504.56,-630.75 496.88,-622.35"/>
<polygon fill="grey" stroke="grey" stroke-width="2" points="499.62,-620.15 490.28,-615.14 494.45,-624.88 499.62,-620.15"/>
</g>
<!-- 7&#45;&gt;14 -->
<g id="edge34" class="edge">
<title>7&#45;&gt;14</title>
<path fill="none" stroke="grey" stroke-width="2" d="M537.01,-647.02C538.5,-623.54 541.13,-582.11 542.93,-553.64"/>
<polygon fill="grey" stroke="grey" stroke-width="2" points="546.41,-554.06 543.55,-543.86 539.43,-553.62 546.41,-554.06"/>
</g>
<!-- 8 -->
<g id="node9" class="node">
<title>8</title>
<path fill="none" stroke="#56d892" stroke-width="2" d="M638.5,-756C638.5,-756 551.25,-756 551.25,-756 545.25,-756 539.25,-750 539.25,-744 539.25,-744 539.25,-732 539.25,-732 539.25,-726 545.25,-720 551.25,-720 551.25,-720 638.5,-720 638.5,-720 644.5,-720 650.5,-726 650.5,-732 650.5,-732 650.5,-744 650.5,-744 650.5,-750 644.5,-756 638.5,-756"/>
<text xml:space="preserve" text-anchor="middle" x="594.88" y="-734.12" font-family="sans" font-size="10.00">sanitize_features_raw</text>
</g>
<!-- 8&#45;&gt;7 -->
<g id="edge21" class="edge">
<title>8&#45;&gt;7</title>
<path fill="none" stroke="grey" stroke-width="2" d="M579.99,-719.34C573.68,-711.85 566.17,-702.95 559.16,-694.63"/>
<polygon fill="grey" stroke="grey" stroke-width="2" points="562.04,-692.61 552.91,-687.22 556.68,-697.12 562.04,-692.61"/>
</g>
<!-- 9 -->
<g id="node10" class="node">
<title>9</title>
<path fill="none" stroke="#c6d856" stroke-width="2" d="M640,-828C640,-828 549.75,-828 549.75,-828 543.75,-828 537.75,-822 537.75,-816 537.75,-816 537.75,-804 537.75,-804 537.75,-798 543.75,-792 549.75,-792 549.75,-792 640,-792 640,-792 646,-792 652,-798 652,-804 652,-804 652,-816 652,-816 652,-822 646,-828 640,-828"/>
<text xml:space="preserve" text-anchor="middle" x="594.88" y="-806.12" font-family="sans" font-size="10.00">engineer_features_raw</text>
</g>
<!-- 9&#45;&gt;8 -->
<g id="edge24" class="edge">
<title>9&#45;&gt;8</title>
<path fill="none" stroke="grey" stroke-width="2" d="M594.88,-791.34C594.88,-784.75 594.88,-777.08 594.88,-769.67"/>
<polygon fill="grey" stroke="grey" stroke-width="2" points="598.38,-769.93 594.88,-759.93 591.38,-769.93 598.38,-769.93"/>
</g>
<!-- 10&#45;&gt;9 -->
<g id="edge25" class="edge">
<title>10&#45;&gt;9</title>
<path fill="none" stroke="grey" stroke-width="2" d="M591.88,-863.34C592.26,-856.75 592.7,-849.08 593.12,-841.67"/>
<polygon fill="grey" stroke="grey" stroke-width="2" points="596.6,-842.11 593.68,-831.92 589.61,-841.71 596.6,-842.11"/>
</g>
<!-- 11&#45;&gt;6 -->
<g id="edge19" class="edge">
<title>11&#45;&gt;6</title>
<path fill="none" stroke="grey" stroke-width="2" d="M420.4,-935.15C425.38,-908.32 433.88,-855.94 433.88,-811 433.88,-811 433.88,-811 433.88,-737 433.88,-697.16 448,-653.11 459.03,-624.8"/>
<polygon fill="grey" stroke="grey" stroke-width="2" points="462.17,-626.36 462.68,-615.77 455.69,-623.73 462.17,-626.36"/>
</g>
<!-- 11&#45;&gt;7 -->
<g id="edge20" class="edge">
<title>11&#45;&gt;7</title>
<path fill="none" stroke="grey" stroke-width="2" d="M428.74,-935.47C435.12,-925.43 442.71,-912.4 447.88,-900 479.73,-823.58 459.6,-794.42 495.88,-720 500.06,-711.41 505.74,-702.82 511.49,-695.14"/>
<polygon fill="grey" stroke="grey" stroke-width="2" points="514.2,-697.36 517.66,-687.34 508.71,-693.01 514.2,-697.36"/>
</g>
<!-- 11&#45;&gt;10 -->
<g id="edge26" class="edge">
<title>11&#45;&gt;10</title>
<path fill="none" stroke="grey" stroke-width="2" d="M461.23,-935.15C483.44,-926.22 510.57,-915.31 534.26,-905.77"/>
<polygon fill="grey" stroke="grey" stroke-width="2" points="535.52,-909.04 543.49,-902.06 532.9,-902.55 535.52,-909.04"/>
</g>
<!-- 13 -->
<g id="node14" class="node">
<title>13</title>
<path fill="none" stroke="#56a2d8" stroke-width="2" d="M531.75,-468C531.75,-468 476,-468 476,-468 470,-468 464,-462 464,-456 464,-456 464,-444 464,-444 464,-438 470,-432 476,-432 476,-432 531.75,-432 531.75,-432 537.75,-432 543.75,-438 543.75,-444 543.75,-444 543.75,-456 543.75,-456 543.75,-462 537.75,-468 531.75,-468"/>
<text xml:space="preserve" text-anchor="middle" x="503.88" y="-446.12" font-family="sans" font-size="10.00">train_approach</text>
</g>
<!-- 11&#45;&gt;13 -->
<g id="edge32" class="edge">
<title>11&#45;&gt;13</title>
<path fill="none" stroke="grey" stroke-width="2" d="M412.52,-935.19C406.37,-908.41 395.88,-856.11 395.88,-811 395.88,-811 395.88,-811 395.88,-593 395.88,-544.72 435.92,-502.59 467.24,-477.02"/>
<polygon fill="grey" stroke="grey" stroke-width="2" points="469.37,-479.79 475.07,-470.86 465.05,-474.29 469.37,-479.79"/>
</g>
<!-- 11&#45;&gt;16 -->
<g id="edge37" class="edge">
<title>11&#45;&gt;16</title>
<path fill="none" stroke="grey" stroke-width="2" d="M404.07,-935.16C386.72,-909.17 357.88,-858.79 357.88,-811 357.88,-811 357.88,-811 357.88,-449 357.88,-409.57 346.33,-365.37 337.33,-336.92"/>
<polygon fill="grey" stroke="grey" stroke-width="2" points="340.69,-335.94 334.24,-327.54 334.04,-338.13 340.69,-335.94"/>
</g>
<!-- 12&#45;&gt;0 -->
<g id="edge1" class="edge">
<title>12&#45;&gt;0</title>
<path fill="none" stroke="grey" stroke-width="2" d="M608.29,-431.07C608.88,-404.13 609.88,-351.63 609.88,-307 609.88,-307 609.88,-307 609.88,-161 609.88,-70.89 482.01,-36.5 414.51,-24.62"/>
<polygon fill="grey" stroke="grey" stroke-width="2" points="415.3,-21.21 404.86,-23.03 414.16,-28.11 415.3,-21.21"/>
</g>
<!-- 13&#45;&gt;0 -->
<g id="edge3" class="edge">
<title>13&#45;&gt;0</title>
<path fill="none" stroke="grey" stroke-width="2" d="M525.06,-431.08C534.94,-421.62 546.01,-409.24 552.88,-396 571.49,-360.09 571.88,-347.45 571.88,-307 571.88,-307 571.88,-307 571.88,-161 571.88,-84.12 472.07,-44.83 414.18,-28.5"/>
<polygon fill="grey" stroke="grey" stroke-width="2" points="415.31,-25.18 404.75,-25.97 413.5,-31.94 415.31,-25.18"/>
</g>
<!-- 15 -->
<g id="node16" class="node">
<title>15</title>
<path fill="none" stroke="#56d8a9" stroke-width="2" d="M531.88,-396C531.88,-396 473.88,-396 473.88,-396 467.88,-396 461.88,-390 461.88,-384 461.88,-384 461.88,-372 461.88,-372 461.88,-366 467.88,-360 473.88,-360 473.88,-360 531.88,-360 531.88,-360 537.88,-360 543.88,-366 543.88,-372 543.88,-372 543.88,-384 543.88,-384 543.88,-390 537.88,-396 531.88,-396"/>
<text xml:space="preserve" text-anchor="middle" x="502.88" y="-374.12" font-family="sans" font-size="10.00">select_portfolio</text>
</g>
<!-- 13&#45;&gt;15 -->
<g id="edge36" class="edge">
<title>13&#45;&gt;15</title>
<path fill="none" stroke="grey" stroke-width="2" d="M503.62,-431.34C503.53,-424.75 503.42,-417.08 503.31,-409.67"/>
<polygon fill="grey" stroke="grey" stroke-width="2" points="506.82,-409.88 503.17,-399.93 499.82,-409.98 506.82,-409.88"/>
</g>
<!-- 14&#45;&gt;13 -->
<g id="edge33" class="edge">
<title>14&#45;&gt;13</title>
<path fill="none" stroke="grey" stroke-width="2" d="M534.53,-503.34C530.38,-496.26 525.5,-487.92 520.86,-480"/>
<polygon fill="grey" stroke="grey" stroke-width="2" points="523.96,-478.37 515.89,-471.51 517.92,-481.91 523.96,-478.37"/>
</g>
<!-- 15&#45;&gt;0 -->
<g id="edge10" class="edge">
<title>15&#45;&gt;0</title>
<path fill="none" stroke="grey" stroke-width="2" d="M502.05,-359.07C500.87,-332.14 498.88,-279.64 498.88,-235 498.88,-235 498.88,-235 498.88,-161 498.88,-119.11 494.74,-104.14 467.88,-72 453.58,-54.9 432.28,-42.25 413.56,-33.61"/>
<polygon fill="grey" stroke="grey" stroke-width="2" points="415.09,-30.45 404.52,-29.7 412.31,-36.88 415.09,-30.45"/>
</g>
<!-- 15&#45;&gt;16 -->
<g id="edge38" class="edge">
<title>15&#45;&gt;16</title>
<path fill="none" stroke="grey" stroke-width="2" d="M461.17,-360.41C438.1,-351.24 409.11,-339.71 383.97,-329.71"/>
<polygon fill="grey" stroke="grey" stroke-width="2" points="385.38,-326.5 374.8,-326.06 382.8,-333.01 385.38,-326.5"/>
</g>
<!-- 16&#45;&gt;0 -->
<g id="edge4" class="edge">
<title>16&#45;&gt;0</title>
<path fill="none" stroke="grey" stroke-width="2" d="M303.79,-287.09C293.2,-277.72 281.35,-265.41 273.88,-252 234.6,-181.56 206.54,-139.37 250.88,-72 269.11,-44.29 305.21,-31.01 333.61,-24.67"/>
<polygon fill="grey" stroke="grey" stroke-width="2" points="333.92,-28.18 343.06,-22.81 332.57,-21.31 333.92,-28.18"/>
</g>
<!-- 18 -->
<g id="node19" class="node">
<title>18</title>
<path fill="none" stroke="#56d0d8" stroke-width="2" d="M358.88,-252C358.88,-252 294.88,-252 294.88,-252 288.88,-252 282.88,-246 282.88,-240 282.88,-240 282.88,-228 282.88,-228 282.88,-222 288.88,-216 294.88,-216 294.88,-216 358.88,-216 358.88,-216 364.88,-216 370.88,-222 370.88,-228 370.88,-228 370.88,-240 370.88,-240 370.88,-246 364.88,-252 358.88,-252"/>
<text xml:space="preserve" text-anchor="middle" x="326.88" y="-230.12" font-family="sans" font-size="10.00">submit_to_portal</text>
</g>
<!-- 16&#45;&gt;18 -->
<g id="edge41" class="edge">
<title>16&#45;&gt;18</title>
<path fill="none" stroke="grey" stroke-width="2" d="M326.88,-287.34C326.88,-280.75 326.88,-273.08 326.88,-265.67"/>
<polygon fill="grey" stroke="grey" stroke-width="2" points="330.38,-265.93 326.88,-255.93 323.38,-265.93 330.38,-265.93"/>
</g>
<!-- 17 -->
<g id="node18" class="node">
<title>17</title>
<path fill="none" stroke="#d86e56" stroke-width="2" d="M368.62,-180C368.62,-180 297.12,-180 297.12,-180 291.12,-180 285.12,-174 285.12,-168 285.12,-168 285.12,-156 285.12,-156 285.12,-150 291.12,-144 297.12,-144 297.12,-144 368.62,-144 368.62,-144 374.62,-144 380.62,-150 380.62,-156 380.62,-156 380.62,-168 380.62,-168 380.62,-174 374.62,-180 368.62,-180"/>
<text xml:space="preserve" text-anchor="middle" x="332.88" y="-158.12" font-family="sans" font-size="10.00">archive_score_run</text>
</g>
<!-- 17&#45;&gt;0 -->
<g id="edge2" class="edge">
<title>17&#45;&gt;0</title>
<path fill="none" stroke="grey" stroke-width="2" d="M364.65,-143.2C377.12,-134.38 390.06,-122.49 396.88,-108 405.81,-88.99 399.48,-66 391.22,-48.15"/>
<polygon fill="grey" stroke="grey" stroke-width="2" points="394.41,-46.71 386.73,-39.42 388.19,-49.91 394.41,-46.71"/>
</g>
<!-- 19 -->
<g id="node20" class="node">
<title>19</title>
<path fill="none" stroke="#d8bc56" stroke-width="2" d="M376.12,-108C376.12,-108 289.62,-108 289.62,-108 283.62,-108 277.62,-102 277.62,-96 277.62,-96 277.62,-84 277.62,-84 277.62,-78 283.62,-72 289.62,-72 289.62,-72 376.12,-72 376.12,-72 382.12,-72 388.12,-78 388.12,-84 388.12,-84 388.12,-96 388.12,-96 388.12,-102 382.12,-108 376.12,-108"/>
<text xml:space="preserve" text-anchor="middle" x="332.88" y="-86.12" font-family="sans" font-size="10.00">copy_best_online_run</text>
</g>
<!-- 17&#45;&gt;19 -->
<g id="edge42" class="edge">
<title>17&#45;&gt;19</title>
<path fill="none" stroke="grey" stroke-width="2" d="M332.88,-143.34C332.88,-136.75 332.88,-129.08 332.88,-121.67"/>
<polygon fill="grey" stroke="grey" stroke-width="2" points="336.38,-121.93 332.88,-111.93 329.38,-121.93 336.38,-121.93"/>
</g>
<!-- 18&#45;&gt;0 -->
<g id="edge5" class="edge">
<title>18&#45;&gt;0</title>
<path fill="none" stroke="grey" stroke-width="2" d="M303.62,-215.09C293.31,-205.81 282.12,-193.57 275.88,-180 255.76,-136.31 243.66,-112.96 268.88,-72 282.96,-49.11 310.32,-35.75 333.58,-28.17"/>
<polygon fill="grey" stroke="grey" stroke-width="2" points="334.46,-31.56 343.07,-25.38 332.48,-24.84 334.46,-31.56"/>
</g>
<!-- 18&#45;&gt;17 -->
<g id="edge40" class="edge">
<title>18&#45;&gt;17</title>
<path fill="none" stroke="grey" stroke-width="2" d="M328.39,-215.34C328.95,-208.75 329.61,-201.08 330.25,-193.67"/>
<polygon fill="grey" stroke="grey" stroke-width="2" points="333.72,-194.18 331.08,-183.92 326.74,-193.58 333.72,-194.18"/>
</g>
<!-- 19&#45;&gt;0 -->
<g id="edge7" class="edge">
<title>19&#45;&gt;0</title>
<path fill="none" stroke="grey" stroke-width="2" d="M343.22,-71.34C347.37,-64.26 352.25,-55.92 356.89,-48"/>
<polygon fill="grey" stroke="grey" stroke-width="2" points="359.83,-49.91 361.86,-39.51 353.79,-46.37 359.83,-49.91"/>
</g>
</g>
</svg>
