<?xml version="1.0" encoding="UTF-8" standalone="no"?>
<!DOCTYPE svg PUBLIC "-//W3C//DTD SVG 1.1//EN"
 "http://www.w3.org/Graphics/SVG/1.1/DTD/svg11.dtd">
<!-- Generated by graphviz version 14.0.2 (20251019.1705)
 -->
<!-- Title: snakemake_dag Pages: 1 -->
<svg width="1026pt" height="1196pt"
 viewBox="0.00 0.00 1026.00 1196.00" xmlns="http://www.w3.org/2000/svg" xmlns:xlink="http://www.w3.org/1999/xlink">
<g id="graph0" class="graph" transform="scale(1 1) rotate(0) translate(4 1192)">
<title>snakemake_dag</title>
<polygon fill="white" stroke="none" points="-4,4 -4,-1192 1021.5,-1192 1021.5,4 -4,4"/>
<!-- 0 -->
<g id="node1" class="node">
<title>0</title>
<path fill="none" stroke="#d85656" stroke-width="2" d="M435.88,-36C435.88,-36 405.88,-36 405.88,-36 399.88,-36 393.88,-30 393.88,-24 393.88,-24 393.88,-12 393.88,-12 393.88,-6 399.88,0 405.88,0 405.88,0 435.88,0 435.88,0 441.88,0 447.88,-6 447.88,-12 447.88,-12 447.88,-24 447.88,-24 447.88,-30 441.88,-36 435.88,-36"/>
<text xml:space="preserve" text-anchor="middle" x="420.88" y="-14.12" font-family="sans" font-size="10.00">all</text>
</g>
<!-- 1 -->
<g id="node2" class="node">
<title>1</title>
<path fill="none" stroke="#61d856" stroke-width="2" d="M91.75,-108C91.75,-108 12,-108 12,-108 6,-108 0,-102 0,-96 0,-96 0,-84 0,-84 0,-78 6,-72 12,-72 12,-72 91.75,-72 91.75,-72 97.75,-72 103.75,-78 103.75,-84 103.75,-84 103.75,-96 103.75,-96 103.75,-102 97.75,-108 91.75,-108"/>
<text xml:space="preserve" text-anchor="middle" x="51.88" y="-86.12" font-family="sans" font-size="10.00">generate_dag_graph</text>
</g>
<!-- 1&#45;&gt;0 -->
<g id="edge4" class="edge">
<title>1&#45;&gt;0</title>
<path fill="none" stroke="grey" stroke-width="2" d="M104.74,-74.99C109.17,-73.94 113.6,-72.92 117.88,-72 211.34,-51.82 322.29,-33.94 380.54,-25.02"/>
<polygon fill="grey" stroke="grey" stroke-width="2" points="380.81,-28.52 390.17,-23.55 379.75,-21.6 380.81,-28.52"/>
</g>
<!-- 2 -->
<g id="node3" class="node">
<title>2</title>
<path fill="none" stroke="#d8b456" stroke-width="2" d="M527,-1188C527,-1188 454.75,-1188 454.75,-1188 448.75,-1188 442.75,-1182 442.75,-1176 442.75,-1176 442.75,-1164 442.75,-1164 442.75,-1158 448.75,-1152 454.75,-1152 454.75,-1152 527,-1152 527,-1152 533,-1152 539,-1158 539,-1164 539,-1164 539,-1176 539,-1176 539,-1182 533,-1188 527,-1188"/>
<text xml:space="preserve" text-anchor="middle" x="490.88" y="-1166.12" font-family="sans" font-size="10.00">clean_plis_training</text>
</g>
<!-- 2&#45;&gt;0 -->
<g id="edge7" class="edge">
<title>2&#45;&gt;0</title>
<path fill="none" stroke="grey" stroke-width="2" d="M442.09,-1160.3C343.93,-1141.4 131.88,-1092.94 131.88,-1027 131.88,-1027 131.88,-1027 131.88,-161 131.88,-51.74 300.32,-26.54 380.01,-20.74"/>
<polygon fill="grey" stroke="grey" stroke-width="2" points="380.13,-24.24 389.88,-20.1 379.68,-17.25 380.13,-24.24"/>
</g>
<!-- 3 -->
<g id="node4" class="node">
<title>3</title>
<path fill="none" stroke="#d88556" stroke-width="2" d="M794.38,-1116C794.38,-1116 709.38,-1116 709.38,-1116 703.38,-1116 697.38,-1110 697.38,-1104 697.38,-1104 697.38,-1092 697.38,-1092 697.38,-1086 703.38,-1080 709.38,-1080 709.38,-1080 794.38,-1080 794.38,-1080 800.38,-1080 806.38,-1086 806.38,-1092 806.38,-1092 806.38,-1104 806.38,-1104 806.38,-1110 800.38,-1116 794.38,-1116"/>
<text xml:space="preserve" text-anchor="middle" x="751.88" y="-1094.12" font-family="sans" font-size="10.00">build_customer_meta</text>
</g>
<!-- 2&#45;&gt;3 -->
<g id="edge14" class="edge">
<title>2&#45;&gt;3</title>
<path fill="none" stroke="grey" stroke-width="2" d="M539.97,-1155.83C580.73,-1144.9 639.14,-1129.24 684.31,-1117.12"/>
<polygon fill="grey" stroke="grey" stroke-width="2" points="685,-1120.56 693.75,-1114.59 683.19,-1113.8 685,-1120.56"/>
</g>
<!-- 4 -->
<g id="node5" class="node">
<title>4</title>
<path fill="none" stroke="#56d863" stroke-width="2" d="M280,-972C280,-972 171.75,-972 171.75,-972 165.75,-972 159.75,-966 159.75,-960 159.75,-960 159.75,-948 159.75,-948 159.75,-942 165.75,-936 171.75,-936 171.75,-936 280,-936 280,-936 286,-936 292,-942 292,-948 292,-948 292,-960 292,-960 292,-966 286,-972 280,-972"/>
<text xml:space="preserve" text-anchor="middle" x="225.88" y="-950.12" font-family="sans" font-size="10.00">generate_exploration_plots</text>
</g>
<!-- 2&#45;&gt;4 -->
<g id="edge15" class="edge">
<title>2&#45;&gt;4</title>
<path fill="none" stroke="grey" stroke-width="2" d="M468.74,-1151.12C421.88,-1113.28 312.49,-1024.95 257.96,-980.91"/>
<polygon fill="grey" stroke="grey" stroke-width="2" points="260.47,-978.44 250.49,-974.88 256.07,-983.88 260.47,-978.44"/>
</g>
<!-- 5 -->
<g id="node6" class="node">
<title>5</title>
<path fill="none" stroke="#56d892" stroke-width="2" d="M649,-1044C649,-1044 528.75,-1044 528.75,-1044 522.75,-1044 516.75,-1038 516.75,-1032 516.75,-1032 516.75,-1020 516.75,-1020 516.75,-1014 522.75,-1008 528.75,-1008 528.75,-1008 649,-1008 649,-1008 655,-1008 661,-1014 661,-1020 661,-1020 661,-1032 661,-1032 661,-1038 655,-1044 649,-1044"/>
<text xml:space="preserve" text-anchor="middle" x="588.88" y="-1022.12" font-family="sans" font-size="10.00">prepare_split_customer_meta</text>
</g>
<!-- 2&#45;&gt;5 -->
<g id="edge17" class="edge">
<title>2&#45;&gt;5</title>
<path fill="none" stroke="grey" stroke-width="2" d="M503.29,-1151.02C519.93,-1126.9 549.65,-1083.83 569.32,-1055.34"/>
<polygon fill="grey" stroke="grey" stroke-width="2" points="572.05,-1057.55 574.84,-1047.33 566.28,-1053.57 572.05,-1057.55"/>
</g>
<!-- 6 -->
<g id="node7" class="node">
<title>6</title>
<path fill="none" stroke="#d89c56" stroke-width="2" d="M1005.5,-1044C1005.5,-1044 906.25,-1044 906.25,-1044 900.25,-1044 894.25,-1038 894.25,-1032 894.25,-1032 894.25,-1020 894.25,-1020 894.25,-1014 900.25,-1008 906.25,-1008 906.25,-1008 1005.5,-1008 1005.5,-1008 1011.5,-1008 1017.5,-1014 1017.5,-1020 1017.5,-1020 1017.5,-1032 1017.5,-1032 1017.5,-1038 1011.5,-1044 1005.5,-1044"/>
<text xml:space="preserve" text-anchor="middle" x="955.88" y="-1022.12" font-family="sans" font-size="10.00">check_vk_price_stability</text>
</g>
<!-- 2&#45;&gt;6 -->
<g id="edge19" class="edge">
<title>2&#45;&gt;6</title>
<path fill="none" stroke="grey" stroke-width="2" d="M539.82,-1167.14C604.84,-1163.3 722.38,-1151.61 815.88,-1116 856.03,-1100.7 896.93,-1073.01 924.07,-1052.56"/>
<polygon fill="grey" stroke="grey" stroke-width="2" points="925.92,-1055.56 931.72,-1046.69 921.65,-1050 925.92,-1055.56"/>
</g>
<!-- 11 -->
<g id="node12" class="node">
<title>11</title>
<path fill="none" stroke="#56d8d0" stroke-width="2" d="M473.62,-972C473.62,-972 360.12,-972 360.12,-972 354.12,-972 348.12,-966 348.12,-960 348.12,-960 348.12,-948 348.12,-948 348.12,-942 354.12,-936 360.12,-936 360.12,-936 473.62,-936 473.62,-936 479.62,-936 485.62,-942 485.62,-948 485.62,-948 485.62,-960 485.62,-960 485.62,-966 479.62,-972 473.62,-972"/>
<text xml:space="preserve" text-anchor="middle" x="416.88" y="-950.12" font-family="sans" font-size="10.00">split_plis_training_validation</text>
</g>
<!-- 2&#45;&gt;11 -->
<g id="edge34" class="edge">
<title>2&#45;&gt;11</title>
<path fill="none" stroke="grey" stroke-width="2" d="M484.69,-1151.12C472.02,-1114.46 442.95,-1030.41 427.3,-985.16"/>
<polygon fill="grey" stroke="grey" stroke-width="2" points="430.66,-984.14 424.08,-975.84 424.04,-986.43 430.66,-984.14"/>
</g>
<!-- 3&#45;&gt;0 -->
<g id="edge2" class="edge">
<title>3&#45;&gt;0</title>
<path fill="none" stroke="grey" stroke-width="2" d="M780.05,-1079.15C813.81,-1055.31 865.88,-1009.69 865.88,-955 865.88,-955 865.88,-955 865.88,-161 865.88,-76.53 571.22,-35.51 461.45,-23.15"/>
<polygon fill="grey" stroke="grey" stroke-width="2" points="462.04,-19.7 451.72,-22.09 461.28,-26.66 462.04,-19.7"/>
</g>
<!-- 3&#45;&gt;5 -->
<g id="edge18" class="edge">
<title>3&#45;&gt;5</title>
<path fill="none" stroke="grey" stroke-width="2" d="M710.32,-1079.15C689.71,-1070.3 664.57,-1059.51 642.52,-1050.04"/>
<polygon fill="grey" stroke="grey" stroke-width="2" points="643.99,-1046.86 633.42,-1046.13 641.22,-1053.29 643.99,-1046.86"/>
</g>
<!-- 8 -->
<g id="node9" class="node">
<title>8</title>
<path fill="none" stroke="#d6d856" stroke-width="2" d="M698.88,-684C698.88,-684 592.88,-684 592.88,-684 586.88,-684 580.88,-678 580.88,-672 580.88,-672 580.88,-660 580.88,-660 580.88,-654 586.88,-648 592.88,-648 592.88,-648 698.88,-648 698.88,-648 704.88,-648 710.88,-654 710.88,-660 710.88,-660 710.88,-672 710.88,-672 710.88,-678 704.88,-684 698.88,-684"/>
<text xml:space="preserve" text-anchor="middle" x="645.88" y="-662.12" font-family="sans" font-size="10.00">engineer_features_derived</text>
</g>
<!-- 3&#45;&gt;8 -->
<g id="edge23" class="edge">
<title>3&#45;&gt;8</title>
<path fill="none" stroke="grey" stroke-width="2" d="M768.74,-1079.35C791.13,-1053.98 827.88,-1004.77 827.88,-955 827.88,-955 827.88,-955 827.88,-809 827.88,-749.6 766.88,-711.39 715.51,-689.73"/>
<polygon fill="grey" stroke="grey" stroke-width="2" points="717.1,-686.6 706.52,-686.11 714.48,-693.1 717.1,-686.6"/>
</g>
<!-- 9 -->
<g id="node10" class="node">
<title>9</title>
<path fill="none" stroke="#bed856" stroke-width="2" d="M691,-756C691,-756 600.75,-756 600.75,-756 594.75,-756 588.75,-750 588.75,-744 588.75,-744 588.75,-732 588.75,-732 588.75,-726 594.75,-720 600.75,-720 600.75,-720 691,-720 691,-720 697,-720 703,-726 703,-732 703,-732 703,-744 703,-744 703,-750 697,-756 691,-756"/>
<text xml:space="preserve" text-anchor="middle" x="645.88" y="-734.12" font-family="sans" font-size="10.00">engineer_features_raw</text>
</g>
<!-- 3&#45;&gt;9 -->
<g id="edge27" class="edge">
<title>3&#45;&gt;9</title>
<path fill="none" stroke="grey" stroke-width="2" d="M759.93,-1079.03C771.09,-1052.48 789.88,-1000.94 789.88,-955 789.88,-955 789.88,-955 789.88,-881 789.88,-827.08 738.06,-786.76 696.59,-763.11"/>
<polygon fill="grey" stroke="grey" stroke-width="2" points="698.33,-760.08 687.88,-758.35 694.97,-766.22 698.33,-760.08"/>
</g>
<!-- 10 -->
<g id="node11" class="node">
<title>10</title>
<path fill="none" stroke="#78d856" stroke-width="2" d="M635.88,-828C635.88,-828 553.88,-828 553.88,-828 547.88,-828 541.88,-822 541.88,-816 541.88,-816 541.88,-804 541.88,-804 541.88,-798 547.88,-792 553.88,-792 553.88,-792 635.88,-792 635.88,-792 641.88,-792 647.88,-798 647.88,-804 647.88,-804 647.88,-816 647.88,-816 647.88,-822 641.88,-828 635.88,-828"/>
<text xml:space="preserve" text-anchor="middle" x="594.88" y="-806.12" font-family="sans" font-size="10.00">generate_candidates</text>
</g>
<!-- 3&#45;&gt;10 -->
<g id="edge31" class="edge">
<title>3&#45;&gt;10</title>
<path fill="none" stroke="grey" stroke-width="2" d="M744.26,-1079.17C726.97,-1039.36 682.53,-940.7 634.88,-864 629.6,-855.52 623.32,-846.71 617.31,-838.76"/>
<polygon fill="grey" stroke="grey" stroke-width="2" points="620.16,-836.73 611.27,-830.97 614.63,-841.02 620.16,-836.73"/>
</g>
<!-- 4&#45;&gt;0 -->
<g id="edge8" class="edge">
<title>4&#45;&gt;0</title>
<path fill="none" stroke="grey" stroke-width="2" d="M215.91,-935.24C202.11,-908.96 178.88,-857.74 178.88,-811 178.88,-811 178.88,-811 178.88,-161 178.88,-115.63 193.15,-99.97 228.88,-72 273.1,-37.38 338.5,-25.36 380.4,-21.19"/>
<polygon fill="grey" stroke="grey" stroke-width="2" points="380.44,-24.7 390.1,-20.36 379.84,-17.73 380.44,-24.7"/>
</g>
<!-- 5&#45;&gt;4 -->
<g id="edge16" class="edge">
<title>5&#45;&gt;4</title>
<path fill="none" stroke="grey" stroke-width="2" d="M515.78,-1011.81C458.58,-1001.37 377.07,-986.23 305.88,-972 305.61,-971.95 305.33,-971.89 305.06,-971.84"/>
<polygon fill="grey" stroke="grey" stroke-width="2" points="306.1,-968.48 295.6,-969.92 304.71,-975.34 306.1,-968.48"/>
</g>
<!-- 5&#45;&gt;8 -->
<g id="edge22" class="edge">
<title>5&#45;&gt;8</title>
<path fill="none" stroke="grey" stroke-width="2" d="M636.9,-1007.01C684.98,-985.52 751.88,-944.55 751.88,-883 751.88,-883 751.88,-883 751.88,-809 751.88,-765.63 738.41,-754.3 711.88,-720 704.07,-709.91 693.96,-700.56 684.02,-692.62"/>
<polygon fill="grey" stroke="grey" stroke-width="2" points="686.31,-689.96 676.23,-686.71 682.08,-695.54 686.31,-689.96"/>
</g>
<!-- 5&#45;&gt;9 -->
<g id="edge26" class="edge">
<title>5&#45;&gt;9</title>
<path fill="none" stroke="grey" stroke-width="2" d="M605.11,-1007.11C613.11,-997.38 622.24,-984.75 627.88,-972 660.66,-897.9 665.15,-872.61 656.88,-792 656.11,-784.52 654.74,-776.54 653.23,-769.1"/>
<polygon fill="grey" stroke="grey" stroke-width="2" points="656.68,-768.49 651.11,-759.48 649.85,-770 656.68,-768.49"/>
</g>
<!-- 5&#45;&gt;10 -->
<g id="edge30" class="edge">
<title>5&#45;&gt;10</title>
<path fill="none" stroke="grey" stroke-width="2" d="M596.88,-1007.07C609.14,-977.26 630.03,-915.69 618.88,-864 617.18,-856.16 614.23,-848.08 610.96,-840.66"/>
<polygon fill="grey" stroke="grey" stroke-width="2" points="614.14,-839.19 606.64,-831.7 607.83,-842.23 614.14,-839.19"/>
</g>
<!-- 5&#45;&gt;11 -->
<g id="edge35" class="edge">
<title>5&#45;&gt;11</title>
<path fill="none" stroke="grey" stroke-width="2" d="M545.03,-1007.15C523.08,-998.22 496.26,-987.31 472.84,-977.77"/>
<polygon fill="grey" stroke="grey" stroke-width="2" points="474.33,-974.6 463.75,-974.08 471.69,-981.09 474.33,-974.6"/>
</g>
<!-- 17 -->
<g id="node18" class="node">
<title>17</title>
<path fill="none" stroke="#566bd8" stroke-width="2" d="M378.38,-324C378.38,-324 281.38,-324 281.38,-324 275.38,-324 269.38,-318 269.38,-312 269.38,-312 269.38,-300 269.38,-300 269.38,-294 275.38,-288 281.38,-288 281.38,-288 378.38,-288 378.38,-288 384.38,-288 390.38,-294 390.38,-300 390.38,-300 390.38,-312 390.38,-312 390.38,-318 384.38,-324 378.38,-324"/>
<text xml:space="preserve" text-anchor="middle" x="329.88" y="-302.12" font-family="sans" font-size="10.00">write_submission_warm</text>
</g>
<!-- 5&#45;&gt;17 -->
<g id="edge43" class="edge">
<title>5&#45;&gt;17</title>
<path fill="none" stroke="grey" stroke-width="2" d="M515.81,-1021.18C463.63,-1015.77 393.31,-1002.82 338.88,-972 329.37,-966.62 278.32,-908.83 271.88,-900 245.12,-863.36 221.88,-856.37 221.88,-811 221.88,-811 221.88,-811 221.88,-665 221.88,-538.03 284.92,-396.1 314.67,-336.19"/>
<polygon fill="grey" stroke="grey" stroke-width="2" points="317.73,-337.89 319.12,-327.38 311.48,-334.73 317.73,-337.89"/>
</g>
<!-- 6&#45;&gt;0 -->
<g id="edge1" class="edge">
<title>6&#45;&gt;0</title>
<path fill="none" stroke="grey" stroke-width="2" d="M950.49,-1007.26C942.87,-980.56 929.88,-928.36 929.88,-883 929.88,-883 929.88,-883 929.88,-161 929.88,-115.63 917.65,-97.13 879.88,-72 811.78,-26.71 560.95,-19.94 461.7,-19.06"/>
<polygon fill="grey" stroke="grey" stroke-width="2" points="461.78,-15.56 451.76,-19 461.73,-22.56 461.78,-15.56"/>
</g>
<!-- 7 -->
<g id="node8" class="node">
<title>7</title>
<path fill="none" stroke="#a7d856" stroke-width="2" d="M604.5,-612C604.5,-612 541.25,-612 541.25,-612 535.25,-612 529.25,-606 529.25,-600 529.25,-600 529.25,-588 529.25,-588 529.25,-582 535.25,-576 541.25,-576 541.25,-576 604.5,-576 604.5,-576 610.5,-576 616.5,-582 616.5,-588 616.5,-588 616.5,-600 616.5,-600 616.5,-606 610.5,-612 604.5,-612"/>
<text xml:space="preserve" text-anchor="middle" x="572.88" y="-590.12" font-family="sans" font-size="10.00">feature_analysis</text>
</g>
<!-- 7&#45;&gt;0 -->
<g id="edge9" class="edge">
<title>7&#45;&gt;0</title>
<path fill="none" stroke="grey" stroke-width="2" d="M572.88,-575.07C572.88,-548.13 572.88,-495.62 572.88,-451 572.88,-451 572.88,-451 572.88,-161 572.88,-99.47 505.55,-56.94 460.51,-35.38"/>
<polygon fill="grey" stroke="grey" stroke-width="2" points="462.05,-32.24 451.5,-31.24 459.13,-38.6 462.05,-32.24"/>
</g>
<!-- 13 -->
<g id="node14" class="node">
<title>13</title>
<path fill="none" stroke="#56b1d8" stroke-width="2" d="M381.38,-468C381.38,-468 314.38,-468 314.38,-468 308.38,-468 302.38,-462 302.38,-456 302.38,-456 302.38,-444 302.38,-444 302.38,-438 308.38,-432 314.38,-432 314.38,-432 381.38,-432 381.38,-432 387.38,-432 393.38,-438 393.38,-444 393.38,-444 393.38,-456 393.38,-456 393.38,-462 387.38,-468 381.38,-468"/>
<text xml:space="preserve" text-anchor="middle" x="347.88" y="-446.12" font-family="sans" font-size="10.00">suggest_features</text>
</g>
<!-- 7&#45;&gt;13 -->
<g id="edge37" class="edge">
<title>7&#45;&gt;13</title>
<path fill="none" stroke="grey" stroke-width="2" d="M544.38,-575.02C504.48,-549.84 431.83,-503.99 386.92,-475.64"/>
<polygon fill="grey" stroke="grey" stroke-width="2" points="389.02,-472.83 378.7,-470.45 385.29,-478.75 389.02,-472.83"/>
</g>
<!-- 15 -->
<g id="node16" class="node">
<title>15</title>
<path fill="none" stroke="#8fd856" stroke-width="2" d="M679,-540C679,-540 612.75,-540 612.75,-540 606.75,-540 600.75,-534 600.75,-528 600.75,-528 600.75,-516 600.75,-516 600.75,-510 606.75,-504 612.75,-504 612.75,-504 679,-504 679,-504 685,-504 691,-510 691,-516 691,-516 691,-528 691,-528 691,-534 685,-540 679,-540"/>
<text xml:space="preserve" text-anchor="middle" x="645.88" y="-518.12" font-family="sans" font-size="10.00">feature_selection</text>
</g>
<!-- 7&#45;&gt;15 -->
<g id="edge41" class="edge">
<title>7&#45;&gt;15</title>
<path fill="none" stroke="grey" stroke-width="2" d="M591.3,-575.34C599.36,-567.6 609,-558.36 617.92,-549.81"/>
<polygon fill="grey" stroke="grey" stroke-width="2" points="620.23,-552.44 625.02,-543 615.38,-547.39 620.23,-552.44"/>
</g>
<!-- 8&#45;&gt;7 -->
<g id="edge21" class="edge">
<title>8&#45;&gt;7</title>
<path fill="none" stroke="grey" stroke-width="2" d="M627.45,-647.34C619.39,-639.6 609.75,-630.36 600.83,-621.81"/>
<polygon fill="grey" stroke="grey" stroke-width="2" points="603.37,-619.39 593.73,-615 598.52,-624.44 603.37,-619.39"/>
</g>
<!-- 8&#45;&gt;15 -->
<g id="edge40" class="edge">
<title>8&#45;&gt;15</title>
<path fill="none" stroke="grey" stroke-width="2" d="M645.88,-647.02C645.88,-623.54 645.88,-582.11 645.88,-553.64"/>
<polygon fill="grey" stroke="grey" stroke-width="2" points="649.38,-553.87 645.88,-543.87 642.38,-553.87 649.38,-553.87"/>
</g>
<!-- 9&#45;&gt;8 -->
<g id="edge25" class="edge">
<title>9&#45;&gt;8</title>
<path fill="none" stroke="grey" stroke-width="2" d="M645.88,-719.34C645.88,-712.75 645.88,-705.08 645.88,-697.67"/>
<polygon fill="grey" stroke="grey" stroke-width="2" points="649.38,-697.93 645.88,-687.93 642.38,-697.93 649.38,-697.93"/>
</g>
<!-- 10&#45;&gt;9 -->
<g id="edge29" class="edge">
<title>10&#45;&gt;9</title>
<path fill="none" stroke="grey" stroke-width="2" d="M607.74,-791.34C613.08,-784.01 619.4,-775.34 625.35,-767.18"/>
<polygon fill="grey" stroke="grey" stroke-width="2" points="627.99,-769.49 631.05,-759.35 622.33,-765.37 627.99,-769.49"/>
</g>
<!-- 11&#45;&gt;7 -->
<g id="edge20" class="edge">
<title>11&#45;&gt;7</title>
<path fill="none" stroke="grey" stroke-width="2" d="M398.49,-935.13C374.6,-909.89 335.88,-861.24 335.88,-811 335.88,-811 335.88,-811 335.88,-737 335.88,-653.46 445.56,-617.87 515.7,-603.65"/>
<polygon fill="grey" stroke="grey" stroke-width="2" points="516.16,-607.12 525.32,-601.8 514.84,-600.25 516.16,-607.12"/>
</g>
<!-- 11&#45;&gt;8 -->
<g id="edge24" class="edge">
<title>11&#45;&gt;8</title>
<path fill="none" stroke="grey" stroke-width="2" d="M414.41,-935.13C412.53,-916.82 411.4,-887.73 418.88,-864 430.43,-827.32 439.98,-819.49 466.88,-792 507.53,-750.45 563.72,-713.83 602.23,-691.13"/>
<polygon fill="grey" stroke="grey" stroke-width="2" points="603.58,-694.4 610.47,-686.35 600.07,-688.34 603.58,-694.4"/>
</g>
<!-- 11&#45;&gt;9 -->
<g id="edge28" class="edge">
<title>11&#45;&gt;9</title>
<path fill="none" stroke="grey" stroke-width="2" d="M417.3,-935.23C418.53,-916.2 422.77,-885.81 436.88,-864 469.3,-813.87 529.54,-781.01 577.05,-761.62"/>
<polygon fill="grey" stroke="grey" stroke-width="2" points="578.3,-764.89 586.33,-757.97 575.74,-758.38 578.3,-764.89"/>
</g>
<!-- 11&#45;&gt;10 -->
<g id="edge32" class="edge">
<title>11&#45;&gt;10</title>
<path fill="none" stroke="grey" stroke-width="2" d="M423.21,-935.35C431.13,-915.58 446.41,-883.71 468.88,-864 486.03,-848.96 508.06,-837.74 528.9,-829.59"/>
<polygon fill="grey" stroke="grey" stroke-width="2" points="529.96,-832.93 538.14,-826.19 527.55,-826.36 529.96,-832.93"/>
</g>
<!-- 12 -->
<g id="node13" class="node">
<title>12</title>
<path fill="none" stroke="#56d87b" stroke-width="2" d="M598,-900C598,-900 489.75,-900 489.75,-900 483.75,-900 477.75,-894 477.75,-888 477.75,-888 477.75,-876 477.75,-876 477.75,-870 483.75,-864 489.75,-864 489.75,-864 598,-864 598,-864 604,-864 610,-870 610,-876 610,-876 610,-888 610,-888 610,-894 604,-900 598,-900"/>
<text xml:space="preserve" text-anchor="middle" x="543.88" y="-878.12" font-family="sans" font-size="10.00">generate_trending_classes</text>
</g>
<!-- 11&#45;&gt;12 -->
<g id="edge36" class="edge">
<title>11&#45;&gt;12</title>
<path fill="none" stroke="grey" stroke-width="2" d="M449.25,-935.15C464.78,-926.6 483.6,-916.22 500.35,-906.99"/>
<polygon fill="grey" stroke="grey" stroke-width="2" points="501.84,-910.17 508.91,-902.27 498.46,-904.04 501.84,-910.17"/>
</g>
<!-- 14 -->
<g id="node15" class="node">
<title>14</title>
<path fill="none" stroke="#569ad8" stroke-width="2" d="M514.75,-468C514.75,-468 459,-468 459,-468 453,-468 447,-462 447,-456 447,-456 447,-444 447,-444 447,-438 453,-432 459,-432 459,-432 514.75,-432 514.75,-432 520.75,-432 526.75,-438 526.75,-444 526.75,-444 526.75,-456 526.75,-456 526.75,-462 520.75,-468 514.75,-468"/>
<text xml:space="preserve" text-anchor="middle" x="486.88" y="-446.12" font-family="sans" font-size="10.00">train_approach</text>
</g>
<!-- 11&#45;&gt;14 -->
<g id="edge39" class="edge">
<title>11&#45;&gt;14</title>
<path fill="none" stroke="grey" stroke-width="2" d="M386.85,-935.04C351.59,-911.41 297.88,-866.32 297.88,-811 297.88,-811 297.88,-811 297.88,-593 297.88,-524.51 378.19,-484.97 434.11,-465.74"/>
<polygon fill="grey" stroke="grey" stroke-width="2" points="435.05,-469.12 443.45,-462.67 432.86,-462.47 435.05,-469.12"/>
</g>
<!-- 11&#45;&gt;17 -->
<g id="edge44" class="edge">
<title>11&#45;&gt;17</title>
<path fill="none" stroke="grey" stroke-width="2" d="M366.4,-935.04C347.43,-926.53 326.65,-914.91 310.88,-900 277.74,-868.69 259.88,-856.59 259.88,-811 259.88,-811 259.88,-811 259.88,-665 259.88,-529.18 173.76,-478.08 240.88,-360 247.54,-348.27 257.94,-338.86 269.32,-331.43"/>
<polygon fill="grey" stroke="grey" stroke-width="2" points="270.98,-334.51 277.83,-326.42 267.43,-328.48 270.98,-334.51"/>
</g>
<!-- 12&#45;&gt;10 -->
<g id="edge33" class="edge">
<title>12&#45;&gt;10</title>
<path fill="none" stroke="grey" stroke-width="2" d="M556.74,-863.34C562.08,-856.01 568.4,-847.34 574.35,-839.18"/>
<polygon fill="grey" stroke="grey" stroke-width="2" points="576.99,-841.49 580.05,-831.35 571.33,-837.37 576.99,-841.49"/>
</g>
<!-- 13&#45;&gt;0 -->
<g id="edge10" class="edge">
<title>13&#45;&gt;0</title>
<path fill="none" stroke="grey" stroke-width="2" d="M329.91,-431.07C308.57,-408.4 274.08,-367.1 259.88,-324 224.82,-217.6 188.8,-162.46 254.88,-72 283.35,-33.02 340.83,-22.04 380.08,-19.3"/>
<polygon fill="grey" stroke="grey" stroke-width="2" points="380.05,-22.81 389.86,-18.81 379.69,-15.82 380.05,-22.81"/>
</g>
<!-- 14&#45;&gt;0 -->
<g id="edge13" class="edge">
<title>14&#45;&gt;0</title>
<path fill="none" stroke="grey" stroke-width="2" d="M498.16,-431.46C504.18,-421.42 511.28,-408.39 515.88,-396 529.95,-358.08 534.88,-347.45 534.88,-307 534.88,-307 534.88,-307 534.88,-161 534.88,-111.51 492.24,-69.44 459.12,-44.23"/>
<polygon fill="grey" stroke="grey" stroke-width="2" points="461.34,-41.52 451.2,-38.44 457.21,-47.17 461.34,-41.52"/>
</g>
<!-- 16 -->
<g id="node17" class="node">
<title>16</title>
<path fill="none" stroke="#56d8b9" stroke-width="2" d="M494.88,-396C494.88,-396 436.88,-396 436.88,-396 430.88,-396 424.88,-390 424.88,-384 424.88,-384 424.88,-372 424.88,-372 424.88,-366 430.88,-360 436.88,-360 436.88,-360 494.88,-360 494.88,-360 500.88,-360 506.88,-366 506.88,-372 506.88,-372 506.88,-384 506.88,-384 506.88,-390 500.88,-396 494.88,-396"/>
<text xml:space="preserve" text-anchor="middle" x="465.88" y="-374.12" font-family="sans" font-size="10.00">select_portfolio</text>
</g>
<!-- 14&#45;&gt;16 -->
<g id="edge42" class="edge">
<title>14&#45;&gt;16</title>
<path fill="none" stroke="grey" stroke-width="2" d="M481.58,-431.34C479.55,-424.59 477.18,-416.69 474.91,-409.11"/>
<polygon fill="grey" stroke="grey" stroke-width="2" points="478.34,-408.37 472.12,-399.8 471.64,-410.39 478.34,-408.37"/>
</g>
<!-- 15&#45;&gt;14 -->
<g id="edge38" class="edge">
<title>15&#45;&gt;14</title>
<path fill="none" stroke="grey" stroke-width="2" d="M605.34,-503.15C585.33,-494.34 560.94,-483.61 539.5,-474.17"/>
<polygon fill="grey" stroke="grey" stroke-width="2" points="540.94,-470.98 530.38,-470.15 538.12,-477.39 540.94,-470.98"/>
</g>
<!-- 16&#45;&gt;0 -->
<g id="edge11" class="edge">
<title>16&#45;&gt;0</title>
<path fill="none" stroke="grey" stroke-width="2" d="M472.3,-359.34C481.38,-332.75 496.88,-280.67 496.88,-235 496.88,-235 496.88,-235 496.88,-161 496.88,-117.06 468.24,-73.56 446.12,-46.52"/>
<polygon fill="grey" stroke="grey" stroke-width="2" points="448.84,-44.31 439.7,-38.96 443.51,-48.85 448.84,-44.31"/>
</g>
<!-- 16&#45;&gt;17 -->
<g id="edge45" class="edge">
<title>16&#45;&gt;17</title>
<path fill="none" stroke="grey" stroke-width="2" d="M431.2,-359.15C414.42,-350.52 394.04,-340.02 375.96,-330.72"/>
<polygon fill="grey" stroke="grey" stroke-width="2" points="377.67,-327.66 367.17,-326.2 374.46,-333.89 377.67,-327.66"/>
</g>
<!-- 17&#45;&gt;0 -->
<g id="edge6" class="edge">
<title>17&#45;&gt;0</title>
<path fill="none" stroke="grey" stroke-width="2" d="M352.46,-287.2C363.07,-277.77 375.07,-265.37 382.88,-252 424.17,-181.22 424.42,-153.94 422.88,-72 422.74,-64.73 422.49,-56.9 422.22,-49.54"/>
<polygon fill="grey" stroke="grey" stroke-width="2" points="425.73,-49.54 421.83,-39.69 418.73,-49.82 425.73,-49.54"/>
</g>
<!-- 19 -->
<g id="node20" class="node">
<title>19</title>
<path fill="none" stroke="#56c9d8" stroke-width="2" d="M361.88,-252C361.88,-252 297.88,-252 297.88,-252 291.88,-252 285.88,-246 285.88,-240 285.88,-240 285.88,-228 285.88,-228 285.88,-222 291.88,-216 297.88,-216 297.88,-216 361.88,-216 361.88,-216 367.88,-216 373.88,-222 373.88,-228 373.88,-228 373.88,-240 373.88,-240 373.88,-246 367.88,-252 361.88,-252"/>
<text xml:space="preserve" text-anchor="middle" x="329.88" y="-230.12" font-family="sans" font-size="10.00">submit_to_portal</text>
</g>
<!-- 17&#45;&gt;19 -->
<g id="edge47" class="edge">
<title>17&#45;&gt;19</title>
<path fill="none" stroke="grey" stroke-width="2" d="M329.88,-287.34C329.88,-280.75 329.88,-273.08 329.88,-265.67"/>
<polygon fill="grey" stroke="grey" stroke-width="2" points="333.38,-265.93 329.88,-255.93 326.38,-265.93 333.38,-265.93"/>
</g>
<!-- 18 -->
<g id="node19" class="node">
<title>18</title>
<path fill="none" stroke="#d86e56" stroke-width="2" d="M373.62,-180C373.62,-180 302.12,-180 302.12,-180 296.12,-180 290.12,-174 290.12,-168 290.12,-168 290.12,-156 290.12,-156 290.12,-150 296.12,-144 302.12,-144 302.12,-144 373.62,-144 373.62,-144 379.62,-144 385.62,-150 385.62,-156 385.62,-156 385.62,-168 385.62,-168 385.62,-174 379.62,-180 373.62,-180"/>
<text xml:space="preserve" text-anchor="middle" x="337.88" y="-158.12" font-family="sans" font-size="10.00">archive_score_run</text>
</g>
<!-- 18&#45;&gt;0 -->
<g id="edge5" class="edge">
<title>18&#45;&gt;0</title>
<path fill="none" stroke="grey" stroke-width="2" d="M367.24,-143.15C379.73,-134.11 393.35,-122.07 401.88,-108 412.51,-90.45 417.24,-67.8 419.33,-49.74"/>
<polygon fill="grey" stroke="grey" stroke-width="2" points="422.79,-50.27 420.19,-40 415.82,-49.65 422.79,-50.27"/>
</g>
<!-- 20 -->
<g id="node21" class="node">
<title>20</title>
<path fill="none" stroke="#d8c356" stroke-width="2" d="M381.12,-108C381.12,-108 294.62,-108 294.62,-108 288.62,-108 282.62,-102 282.62,-96 282.62,-96 282.62,-84 282.62,-84 282.62,-78 288.62,-72 294.62,-72 294.62,-72 381.12,-72 381.12,-72 387.12,-72 393.12,-78 393.12,-84 393.12,-84 393.12,-96 393.12,-96 393.12,-102 387.12,-108 381.12,-108"/>
<text xml:space="preserve" text-anchor="middle" x="337.88" y="-86.12" font-family="sans" font-size="10.00">copy_best_online_run</text>
</g>
<!-- 18&#45;&gt;20 -->
<g id="edge48" class="edge">
<title>18&#45;&gt;20</title>
<path fill="none" stroke="grey" stroke-width="2" d="M337.88,-143.34C337.88,-136.75 337.88,-129.08 337.88,-121.67"/>
<polygon fill="grey" stroke="grey" stroke-width="2" points="341.38,-121.93 337.88,-111.93 334.38,-121.93 341.38,-121.93"/>
</g>
<!-- 19&#45;&gt;0 -->
<g id="edge12" class="edge">
<title>19&#45;&gt;0</title>
<path fill="none" stroke="grey" stroke-width="2" d="M307.78,-215.16C297.81,-205.81 286.93,-193.49 280.88,-180 261.19,-136.11 246.23,-111.36 273.88,-72 297.8,-37.95 345.83,-25.67 380.49,-21.31"/>
<polygon fill="grey" stroke="grey" stroke-width="2" points="380.45,-24.83 390.03,-20.31 379.72,-17.87 380.45,-24.83"/>
</g>
<!-- 19&#45;&gt;18 -->
<g id="edge46" class="edge">
<title>19&#45;&gt;18</title>
<path fill="none" stroke="grey" stroke-width="2" d="M331.89,-215.34C332.65,-208.75 333.52,-201.08 334.37,-193.67"/>
<polygon fill="grey" stroke="grey" stroke-width="2" points="337.83,-194.24 335.49,-183.91 330.87,-193.45 337.83,-194.24"/>
</g>
<!-- 20&#45;&gt;0 -->
<g id="edge3" class="edge">
<title>20&#45;&gt;0</title>
<path fill="none" stroke="grey" stroke-width="2" d="M358.82,-71.34C368.18,-63.44 379.42,-53.96 389.74,-45.26"/>
<polygon fill="grey" stroke="grey" stroke-width="2" points="391.95,-47.98 397.33,-38.85 387.43,-42.62 391.95,-47.98"/>
</g>
</g>
</svg>
