<?xml version="1.0" encoding="UTF-8" standalone="no"?>
<!DOCTYPE svg PUBLIC "-//W3C//DTD SVG 1.1//EN"
 "http://www.w3.org/Graphics/SVG/1.1/DTD/svg11.dtd">
<!-- Generated by graphviz version 14.0.2 (20251019.1705)
 -->
<!-- Title: snakemake_dag Pages: 1 -->
<svg width="864pt" height="1124pt"
 viewBox="0.00 0.00 864.00 1124.00" xmlns="http://www.w3.org/2000/svg" xmlns:xlink="http://www.w3.org/1999/xlink">
<g id="graph0" class="graph" transform="scale(1 1) rotate(0) translate(4 1120)">
<title>snakemake_dag</title>
<polygon fill="white" stroke="none" points="-4,4 -4,-1120 860.12,-1120 860.12,4 -4,4"/>
<!-- 0 -->
<g id="node1" class="node">
<title>0</title>
<path fill="none" stroke="#d85656" stroke-width="2" d="M430.88,-36C430.88,-36 400.88,-36 400.88,-36 394.88,-36 388.88,-30 388.88,-24 388.88,-24 388.88,-12 388.88,-12 388.88,-6 394.88,0 400.88,0 400.88,0 430.88,0 430.88,0 436.88,0 442.88,-6 442.88,-12 442.88,-12 442.88,-24 442.88,-24 442.88,-30 436.88,-36 430.88,-36"/>
<text xml:space="preserve" text-anchor="middle" x="415.88" y="-14.12" font-family="sans" font-size="10.00">all</text>
</g>
<!-- 1 -->
<g id="node2" class="node">
<title>1</title>
<path fill="none" stroke="#61d856" stroke-width="2" d="M91.75,-108C91.75,-108 12,-108 12,-108 6,-108 0,-102 0,-96 0,-96 0,-84 0,-84 0,-78 6,-72 12,-72 12,-72 91.75,-72 91.75,-72 97.75,-72 103.75,-78 103.75,-84 103.75,-84 103.75,-96 103.75,-96 103.75,-102 97.75,-108 91.75,-108"/>
<text xml:space="preserve" text-anchor="middle" x="51.88" y="-86.12" font-family="sans" font-size="10.00">generate_dag_graph</text>
</g>
<!-- 1&#45;&gt;0 -->
<g id="edge11" class="edge">
<title>1&#45;&gt;0</title>
<path fill="none" stroke="grey" stroke-width="2" d="M104.75,-75C109.18,-73.95 113.6,-72.93 117.88,-72 209.39,-52.11 317.9,-34.23 375.4,-25.2"/>
<polygon fill="grey" stroke="grey" stroke-width="2" points="375.88,-28.66 385.22,-23.67 374.8,-21.75 375.88,-28.66"/>
</g>
<!-- 2 -->
<g id="node3" class="node">
<title>2</title>
<path fill="none" stroke="#d8a456" stroke-width="2" d="M390,-1116C390,-1116 317.75,-1116 317.75,-1116 311.75,-1116 305.75,-1110 305.75,-1104 305.75,-1104 305.75,-1092 305.75,-1092 305.75,-1086 311.75,-1080 317.75,-1080 317.75,-1080 390,-1080 390,-1080 396,-1080 402,-1086 402,-1092 402,-1092 402,-1104 402,-1104 402,-1110 396,-1116 390,-1116"/>
<text xml:space="preserve" text-anchor="middle" x="353.88" y="-1094.12" font-family="sans" font-size="10.00">clean_plis_training</text>
</g>
<!-- 2&#45;&gt;0 -->
<g id="edge3" class="edge">
<title>2&#45;&gt;0</title>
<path fill="none" stroke="grey" stroke-width="2" d="M304.88,-1088.23C239.5,-1073.38 131.88,-1036.55 131.88,-955 131.88,-955 131.88,-955 131.88,-161 131.88,-53.39 297.01,-27.33 375.43,-21.02"/>
<polygon fill="grey" stroke="grey" stroke-width="2" points="375.38,-24.53 385.11,-20.32 374.88,-17.55 375.38,-24.53"/>
</g>
<!-- 3 -->
<g id="node4" class="node">
<title>3</title>
<path fill="none" stroke="#d88556" stroke-width="2" d="M633.38,-1044C633.38,-1044 548.38,-1044 548.38,-1044 542.38,-1044 536.38,-1038 536.38,-1032 536.38,-1032 536.38,-1020 536.38,-1020 536.38,-1014 542.38,-1008 548.38,-1008 548.38,-1008 633.38,-1008 633.38,-1008 639.38,-1008 645.38,-1014 645.38,-1020 645.38,-1020 645.38,-1032 645.38,-1032 645.38,-1038 639.38,-1044 633.38,-1044"/>
<text xml:space="preserve" text-anchor="middle" x="590.88" y="-1022.12" font-family="sans" font-size="10.00">build_customer_meta</text>
</g>
<!-- 2&#45;&gt;3 -->
<g id="edge13" class="edge">
<title>2&#45;&gt;3</title>
<path fill="none" stroke="grey" stroke-width="2" d="M402.98,-1082.5C437.85,-1072.2 485.09,-1058.24 523.48,-1046.9"/>
<polygon fill="grey" stroke="grey" stroke-width="2" points="524.11,-1050.37 532.71,-1044.18 522.13,-1043.66 524.11,-1050.37"/>
</g>
<!-- 4 -->
<g id="node5" class="node">
<title>4</title>
<path fill="none" stroke="#56d863" stroke-width="2" d="M280,-900C280,-900 171.75,-900 171.75,-900 165.75,-900 159.75,-894 159.75,-888 159.75,-888 159.75,-876 159.75,-876 159.75,-870 165.75,-864 171.75,-864 171.75,-864 280,-864 280,-864 286,-864 292,-870 292,-876 292,-876 292,-888 292,-888 292,-894 286,-900 280,-900"/>
<text xml:space="preserve" text-anchor="middle" x="225.88" y="-878.12" font-family="sans" font-size="10.00">generate_exploration_plots</text>
</g>
<!-- 2&#45;&gt;4 -->
<g id="edge15" class="edge">
<title>2&#45;&gt;4</title>
<path fill="none" stroke="grey" stroke-width="2" d="M343.18,-1079.12C321.06,-1042.14 270.11,-956.96 243.22,-912"/>
<polygon fill="grey" stroke="grey" stroke-width="2" points="246.32,-910.36 238.18,-903.57 240.31,-913.95 246.32,-910.36"/>
</g>
<!-- 5 -->
<g id="node6" class="node">
<title>5</title>
<path fill="none" stroke="#56d87b" stroke-width="2" d="M514,-972C514,-972 393.75,-972 393.75,-972 387.75,-972 381.75,-966 381.75,-960 381.75,-960 381.75,-948 381.75,-948 381.75,-942 387.75,-936 393.75,-936 393.75,-936 514,-936 514,-936 520,-936 526,-942 526,-948 526,-948 526,-960 526,-960 526,-966 520,-972 514,-972"/>
<text xml:space="preserve" text-anchor="middle" x="453.88" y="-950.12" font-family="sans" font-size="10.00">prepare_split_customer_meta</text>
</g>
<!-- 2&#45;&gt;5 -->
<g id="edge17" class="edge">
<title>2&#45;&gt;5</title>
<path fill="none" stroke="grey" stroke-width="2" d="M366.54,-1079.02C383.52,-1054.9 413.85,-1011.83 433.92,-983.34"/>
<polygon fill="grey" stroke="grey" stroke-width="2" points="436.67,-985.5 439.57,-975.31 430.95,-981.47 436.67,-985.5"/>
</g>
<!-- 11 -->
<g id="node12" class="node">
<title>11</title>
<path fill="none" stroke="#56d8c9" stroke-width="2" d="M473.62,-900C473.62,-900 360.12,-900 360.12,-900 354.12,-900 348.12,-894 348.12,-888 348.12,-888 348.12,-876 348.12,-876 348.12,-870 354.12,-864 360.12,-864 360.12,-864 473.62,-864 473.62,-864 479.62,-864 485.62,-870 485.62,-876 485.62,-876 485.62,-888 485.62,-888 485.62,-894 479.62,-900 473.62,-900"/>
<text xml:space="preserve" text-anchor="middle" x="416.88" y="-878.12" font-family="sans" font-size="10.00">split_plis_training_validation</text>
</g>
<!-- 2&#45;&gt;11 -->
<g id="edge30" class="edge">
<title>2&#45;&gt;11</title>
<path fill="none" stroke="grey" stroke-width="2" d="M352.77,-1079.25C351.55,-1048.66 352.02,-984.63 372.88,-936 376.76,-926.93 382.72,-918.21 389,-910.54"/>
<polygon fill="grey" stroke="grey" stroke-width="2" points="391.59,-912.89 395.6,-903.08 386.35,-908.25 391.59,-912.89"/>
</g>
<!-- 3&#45;&gt;0 -->
<g id="edge12" class="edge">
<title>3&#45;&gt;0</title>
<path fill="none" stroke="grey" stroke-width="2" d="M623.58,-1007.14C661.21,-983.92 717.88,-939.56 717.88,-883 717.88,-883 717.88,-883 717.88,-161 717.88,-46.85 538.98,-24.29 456.56,-19.96"/>
<polygon fill="grey" stroke="grey" stroke-width="2" points="456.91,-16.47 446.77,-19.53 456.6,-23.47 456.91,-16.47"/>
</g>
<!-- 3&#45;&gt;5 -->
<g id="edge16" class="edge">
<title>3&#45;&gt;5</title>
<path fill="none" stroke="grey" stroke-width="2" d="M555.95,-1007.15C539.04,-998.52 518.51,-988.02 500.3,-978.72"/>
<polygon fill="grey" stroke="grey" stroke-width="2" points="501.93,-975.62 491.43,-974.19 498.74,-981.86 501.93,-975.62"/>
</g>
<!-- 7 -->
<g id="node8" class="node">
<title>7</title>
<path fill="none" stroke="#d8d356" stroke-width="2" d="M588.88,-612C588.88,-612 482.88,-612 482.88,-612 476.88,-612 470.88,-606 470.88,-600 470.88,-600 470.88,-588 470.88,-588 470.88,-582 476.88,-576 482.88,-576 482.88,-576 588.88,-576 588.88,-576 594.88,-576 600.88,-582 600.88,-588 600.88,-588 600.88,-600 600.88,-600 600.88,-606 594.88,-612 588.88,-612"/>
<text xml:space="preserve" text-anchor="middle" x="535.88" y="-590.12" font-family="sans" font-size="10.00">engineer_features_derived</text>
</g>
<!-- 3&#45;&gt;7 -->
<g id="edge23" class="edge">
<title>3&#45;&gt;7</title>
<path fill="none" stroke="grey" stroke-width="2" d="M611.52,-1007.07C637.81,-982.12 679.88,-934.21 679.88,-883 679.88,-883 679.88,-883 679.88,-737 679.88,-696.46 685.81,-679.17 659.88,-648 647.83,-633.52 631.11,-622.91 613.85,-615.17"/>
<polygon fill="grey" stroke="grey" stroke-width="2" points="615.24,-611.95 604.66,-611.4 612.58,-618.43 615.24,-611.95"/>
</g>
<!-- 10 -->
<g id="node11" class="node">
<title>10</title>
<path fill="none" stroke="#78d856" stroke-width="2" d="M631.88,-828C631.88,-828 549.88,-828 549.88,-828 543.88,-828 537.88,-822 537.88,-816 537.88,-816 537.88,-804 537.88,-804 537.88,-798 543.88,-792 549.88,-792 549.88,-792 631.88,-792 631.88,-792 637.88,-792 643.88,-798 643.88,-804 643.88,-804 643.88,-816 643.88,-816 643.88,-822 637.88,-828 631.88,-828"/>
<text xml:space="preserve" text-anchor="middle" x="590.88" y="-806.12" font-family="sans" font-size="10.00">generate_candidates</text>
</g>
<!-- 3&#45;&gt;10 -->
<g id="edge28" class="edge">
<title>3&#45;&gt;10</title>
<path fill="none" stroke="grey" stroke-width="2" d="M590.88,-1007.12C590.88,-970.62 590.88,-887.13 590.88,-841.74"/>
<polygon fill="grey" stroke="grey" stroke-width="2" points="594.38,-842 590.88,-832 587.38,-842 594.38,-842"/>
</g>
<!-- 4&#45;&gt;0 -->
<g id="edge5" class="edge">
<title>4&#45;&gt;0</title>
<path fill="none" stroke="grey" stroke-width="2" d="M225.88,-863.07C225.88,-836.13 225.88,-783.62 225.88,-739 225.88,-739 225.88,-739 225.88,-161 225.88,-86.69 320.27,-46.59 375.99,-29.39"/>
<polygon fill="grey" stroke="grey" stroke-width="2" points="376.74,-32.82 385.34,-26.64 374.76,-26.1 376.74,-32.82"/>
</g>
<!-- 5&#45;&gt;4 -->
<g id="edge14" class="edge">
<title>5&#45;&gt;4</title>
<path fill="none" stroke="grey" stroke-width="2" d="M395.46,-935.06C365.29,-925.8 328.24,-914.43 296.48,-904.68"/>
<polygon fill="grey" stroke="grey" stroke-width="2" points="297.62,-901.37 287.04,-901.78 295.57,-908.06 297.62,-901.37"/>
</g>
<!-- 5&#45;&gt;7 -->
<g id="edge21" class="edge">
<title>5&#45;&gt;7</title>
<path fill="none" stroke="grey" stroke-width="2" d="M471.32,-935.4C479.83,-925.74 489.4,-913.09 494.88,-900 500.15,-887.38 523.22,-699.83 532.24,-625.25"/>
<polygon fill="grey" stroke="grey" stroke-width="2" points="535.67,-626.06 533.39,-615.72 528.72,-625.22 535.67,-626.06"/>
</g>
<!-- 5&#45;&gt;10 -->
<g id="edge26" class="edge">
<title>5&#45;&gt;10</title>
<path fill="none" stroke="grey" stroke-width="2" d="M483.38,-935.17C497.69,-925.72 514.61,-913.33 527.88,-900 545.92,-881.86 562.47,-858.06 574.08,-839.64"/>
<polygon fill="grey" stroke="grey" stroke-width="2" points="576.97,-841.63 579.21,-831.27 571,-837.96 576.97,-841.63"/>
</g>
<!-- 5&#45;&gt;11 -->
<g id="edge29" class="edge">
<title>5&#45;&gt;11</title>
<path fill="none" stroke="grey" stroke-width="2" d="M444.54,-935.34C440.84,-928.34 436.49,-920.12 432.35,-912.28"/>
<polygon fill="grey" stroke="grey" stroke-width="2" points="435.52,-910.78 427.75,-903.58 429.33,-914.05 435.52,-910.78"/>
</g>
<!-- 16 -->
<g id="node17" class="node">
<title>16</title>
<path fill="none" stroke="#5673d8" stroke-width="2" d="M394.38,-252C394.38,-252 297.38,-252 297.38,-252 291.38,-252 285.38,-246 285.38,-240 285.38,-240 285.38,-228 285.38,-228 285.38,-222 291.38,-216 297.38,-216 297.38,-216 394.38,-216 394.38,-216 400.38,-216 406.38,-222 406.38,-228 406.38,-228 406.38,-240 406.38,-240 406.38,-246 400.38,-252 394.38,-252"/>
<text xml:space="preserve" text-anchor="middle" x="345.88" y="-230.12" font-family="sans" font-size="10.00">write_submission_warm</text>
</g>
<!-- 5&#45;&gt;16 -->
<g id="edge37" class="edge">
<title>5&#45;&gt;16</title>
<path fill="none" stroke="grey" stroke-width="2" d="M388.31,-935.06C369.91,-927.08 351.51,-915.79 338.88,-900 313.61,-868.41 319.88,-851.45 319.88,-811 319.88,-811 319.88,-811 319.88,-377 319.88,-337.84 329.56,-293.58 337.11,-265.04"/>
<polygon fill="grey" stroke="grey" stroke-width="2" points="340.41,-266.23 339.69,-255.66 333.66,-264.38 340.41,-266.23"/>
</g>
<!-- 6 -->
<g id="node7" class="node">
<title>6</title>
<path fill="none" stroke="#afd856" stroke-width="2" d="M503.5,-540C503.5,-540 440.25,-540 440.25,-540 434.25,-540 428.25,-534 428.25,-528 428.25,-528 428.25,-516 428.25,-516 428.25,-510 434.25,-504 440.25,-504 440.25,-504 503.5,-504 503.5,-504 509.5,-504 515.5,-510 515.5,-516 515.5,-516 515.5,-528 515.5,-528 515.5,-534 509.5,-540 503.5,-540"/>
<text xml:space="preserve" text-anchor="middle" x="471.88" y="-518.12" font-family="sans" font-size="10.00">feature_analysis</text>
</g>
<!-- 6&#45;&gt;0 -->
<g id="edge4" class="edge">
<title>6&#45;&gt;0</title>
<path fill="none" stroke="grey" stroke-width="2" d="M469.04,-503.25C465.28,-479.06 458.66,-434.36 454.88,-396 440.7,-252.42 463.95,-213.31 434.88,-72 433.3,-64.37 430.87,-56.35 428.26,-48.92"/>
<polygon fill="grey" stroke="grey" stroke-width="2" points="431.55,-47.74 424.75,-39.62 425.01,-50.21 431.55,-47.74"/>
</g>
<!-- 12 -->
<g id="node13" class="node">
<title>12</title>
<path fill="none" stroke="#56b9d8" stroke-width="2" d="M642.38,-396C642.38,-396 575.38,-396 575.38,-396 569.38,-396 563.38,-390 563.38,-384 563.38,-384 563.38,-372 563.38,-372 563.38,-366 569.38,-360 575.38,-360 575.38,-360 642.38,-360 642.38,-360 648.38,-360 654.38,-366 654.38,-372 654.38,-372 654.38,-384 654.38,-384 654.38,-390 648.38,-396 642.38,-396"/>
<text xml:space="preserve" text-anchor="middle" x="608.88" y="-374.12" font-family="sans" font-size="10.00">suggest_features</text>
</g>
<!-- 6&#45;&gt;12 -->
<g id="edge31" class="edge">
<title>6&#45;&gt;12</title>
<path fill="none" stroke="grey" stroke-width="2" d="M471.16,-503.3C471.3,-483.77 474.39,-452.4 490.88,-432 499.25,-421.63 525.23,-409.48 550.68,-399.44"/>
<polygon fill="grey" stroke="grey" stroke-width="2" points="551.76,-402.77 559.84,-395.92 549.25,-396.24 551.76,-402.77"/>
</g>
<!-- 14 -->
<g id="node15" class="node">
<title>14</title>
<path fill="none" stroke="#97d856" stroke-width="2" d="M578,-468C578,-468 511.75,-468 511.75,-468 505.75,-468 499.75,-462 499.75,-456 499.75,-456 499.75,-444 499.75,-444 499.75,-438 505.75,-432 511.75,-432 511.75,-432 578,-432 578,-432 584,-432 590,-438 590,-444 590,-444 590,-456 590,-456 590,-462 584,-468 578,-468"/>
<text xml:space="preserve" text-anchor="middle" x="544.88" y="-446.12" font-family="sans" font-size="10.00">feature_selection</text>
</g>
<!-- 6&#45;&gt;14 -->
<g id="edge35" class="edge">
<title>6&#45;&gt;14</title>
<path fill="none" stroke="grey" stroke-width="2" d="M490.3,-503.34C498.36,-495.6 508,-486.36 516.92,-477.81"/>
<polygon fill="grey" stroke="grey" stroke-width="2" points="519.23,-480.44 524.02,-471 514.38,-475.39 519.23,-480.44"/>
</g>
<!-- 7&#45;&gt;6 -->
<g id="edge18" class="edge">
<title>7&#45;&gt;6</title>
<path fill="none" stroke="grey" stroke-width="2" d="M519.73,-575.34C512.81,-567.77 504.56,-558.75 496.88,-550.35"/>
<polygon fill="grey" stroke="grey" stroke-width="2" points="499.62,-548.15 490.28,-543.14 494.45,-552.88 499.62,-548.15"/>
</g>
<!-- 7&#45;&gt;14 -->
<g id="edge34" class="edge">
<title>7&#45;&gt;14</title>
<path fill="none" stroke="grey" stroke-width="2" d="M537.01,-575.02C538.5,-551.54 541.13,-510.11 542.93,-481.64"/>
<polygon fill="grey" stroke="grey" stroke-width="2" points="546.41,-482.06 543.55,-471.86 539.43,-481.62 546.41,-482.06"/>
</g>
<!-- 8 -->
<g id="node9" class="node">
<title>8</title>
<path fill="none" stroke="#56d892" stroke-width="2" d="M638.5,-684C638.5,-684 551.25,-684 551.25,-684 545.25,-684 539.25,-678 539.25,-672 539.25,-672 539.25,-660 539.25,-660 539.25,-654 545.25,-648 551.25,-648 551.25,-648 638.5,-648 638.5,-648 644.5,-648 650.5,-654 650.5,-660 650.5,-660 650.5,-672 650.5,-672 650.5,-678 644.5,-684 638.5,-684"/>
<text xml:space="preserve" text-anchor="middle" x="594.88" y="-662.12" font-family="sans" font-size="10.00">sanitize_features_raw</text>
</g>
<!-- 8&#45;&gt;7 -->
<g id="edge20" class="edge">
<title>8&#45;&gt;7</title>
<path fill="none" stroke="grey" stroke-width="2" d="M579.99,-647.34C573.68,-639.85 566.17,-630.95 559.16,-622.63"/>
<polygon fill="grey" stroke="grey" stroke-width="2" points="562.04,-620.61 552.91,-615.22 556.68,-625.12 562.04,-620.61"/>
</g>
<!-- 9 -->
<g id="node10" class="node">
<title>9</title>
<path fill="none" stroke="#c6d856" stroke-width="2" d="M640,-756C640,-756 549.75,-756 549.75,-756 543.75,-756 537.75,-750 537.75,-744 537.75,-744 537.75,-732 537.75,-732 537.75,-726 543.75,-720 549.75,-720 549.75,-720 640,-720 640,-720 646,-720 652,-726 652,-732 652,-732 652,-744 652,-744 652,-750 646,-756 640,-756"/>
<text xml:space="preserve" text-anchor="middle" x="594.88" y="-734.12" font-family="sans" font-size="10.00">engineer_features_raw</text>
</g>
<!-- 9&#45;&gt;8 -->
<g id="edge24" class="edge">
<title>9&#45;&gt;8</title>
<path fill="none" stroke="grey" stroke-width="2" d="M594.88,-719.34C594.88,-712.75 594.88,-705.08 594.88,-697.67"/>
<polygon fill="grey" stroke="grey" stroke-width="2" points="598.38,-697.93 594.88,-687.93 591.38,-697.93 598.38,-697.93"/>
</g>
<!-- 10&#45;&gt;9 -->
<g id="edge25" class="edge">
<title>10&#45;&gt;9</title>
<path fill="none" stroke="grey" stroke-width="2" d="M591.88,-791.34C592.26,-784.75 592.7,-777.08 593.12,-769.67"/>
<polygon fill="grey" stroke="grey" stroke-width="2" points="596.6,-770.11 593.68,-759.92 589.61,-769.71 596.6,-770.11"/>
</g>
<!-- 11&#45;&gt;6 -->
<g id="edge19" class="edge">
<title>11&#45;&gt;6</title>
<path fill="none" stroke="grey" stroke-width="2" d="M420.4,-863.15C425.38,-836.32 433.88,-783.94 433.88,-739 433.88,-739 433.88,-739 433.88,-665 433.88,-625.16 448,-581.11 459.03,-552.8"/>
<polygon fill="grey" stroke="grey" stroke-width="2" points="462.17,-554.36 462.68,-543.77 455.69,-551.73 462.17,-554.36"/>
</g>
<!-- 11&#45;&gt;7 -->
<g id="edge22" class="edge">
<title>11&#45;&gt;7</title>
<path fill="none" stroke="grey" stroke-width="2" d="M428.74,-863.47C435.12,-853.43 442.71,-840.4 447.88,-828 479.73,-751.58 459.6,-722.42 495.88,-648 500.06,-639.41 505.74,-630.82 511.49,-623.14"/>
<polygon fill="grey" stroke="grey" stroke-width="2" points="514.2,-625.36 517.66,-615.34 508.71,-621.01 514.2,-625.36"/>
</g>
<!-- 11&#45;&gt;10 -->
<g id="edge27" class="edge">
<title>11&#45;&gt;10</title>
<path fill="none" stroke="grey" stroke-width="2" d="M461.23,-863.15C483.44,-854.22 510.57,-843.31 534.26,-833.77"/>
<polygon fill="grey" stroke="grey" stroke-width="2" points="535.52,-837.04 543.49,-830.06 532.9,-830.55 535.52,-837.04"/>
</g>
<!-- 13 -->
<g id="node14" class="node">
<title>13</title>
<path fill="none" stroke="#56a2d8" stroke-width="2" d="M531.75,-396C531.75,-396 476,-396 476,-396 470,-396 464,-390 464,-384 464,-384 464,-372 464,-372 464,-366 470,-360 476,-360 476,-360 531.75,-360 531.75,-360 537.75,-360 543.75,-366 543.75,-372 543.75,-372 543.75,-384 543.75,-384 543.75,-390 537.75,-396 531.75,-396"/>
<text xml:space="preserve" text-anchor="middle" x="503.88" y="-374.12" font-family="sans" font-size="10.00">train_approach</text>
</g>
<!-- 11&#45;&gt;13 -->
<g id="edge32" class="edge">
<title>11&#45;&gt;13</title>
<path fill="none" stroke="grey" stroke-width="2" d="M412.52,-863.19C406.37,-836.41 395.88,-784.11 395.88,-739 395.88,-739 395.88,-739 395.88,-521 395.88,-472.72 435.92,-430.59 467.24,-405.02"/>
<polygon fill="grey" stroke="grey" stroke-width="2" points="469.37,-407.79 475.07,-398.86 465.05,-402.29 469.37,-407.79"/>
</g>
<!-- 11&#45;&gt;16 -->
<g id="edge38" class="edge">
<title>11&#45;&gt;16</title>
<path fill="none" stroke="grey" stroke-width="2" d="M404.07,-863.16C386.72,-837.17 357.88,-786.79 357.88,-739 357.88,-739 357.88,-739 357.88,-377 357.88,-338.52 353.44,-294.37 349.97,-265.66"/>
<polygon fill="grey" stroke="grey" stroke-width="2" points="353.46,-265.38 348.74,-255.9 346.52,-266.25 353.46,-265.38"/>
</g>
<!-- 12&#45;&gt;0 -->
<g id="edge7" class="edge">
<title>12&#45;&gt;0</title>
<path fill="none" stroke="grey" stroke-width="2" d="M609.08,-359.07C609.38,-332.13 609.88,-279.62 609.88,-235 609.88,-235 609.88,-235 609.88,-161 609.88,-85.49 512.99,-45.79 456.16,-29"/>
<polygon fill="grey" stroke="grey" stroke-width="2" points="457.16,-25.64 446.58,-26.3 455.26,-32.38 457.16,-25.64"/>
</g>
<!-- 13&#45;&gt;0 -->
<g id="edge10" class="edge">
<title>13&#45;&gt;0</title>
<path fill="none" stroke="grey" stroke-width="2" d="M525.06,-359.08C534.94,-349.62 546.01,-337.24 552.88,-324 571.49,-288.09 571.88,-275.45 571.88,-235 571.88,-235 571.88,-235 571.88,-161 571.88,-98.13 501.73,-55.73 455.51,-34.61"/>
<polygon fill="grey" stroke="grey" stroke-width="2" points="457.1,-31.49 446.54,-30.68 454.29,-37.9 457.1,-31.49"/>
</g>
<!-- 15 -->
<g id="node16" class="node">
<title>15</title>
<path fill="none" stroke="#56d8a9" stroke-width="2" d="M531.88,-324C531.88,-324 473.88,-324 473.88,-324 467.88,-324 461.88,-318 461.88,-312 461.88,-312 461.88,-300 461.88,-300 461.88,-294 467.88,-288 473.88,-288 473.88,-288 531.88,-288 531.88,-288 537.88,-288 543.88,-294 543.88,-300 543.88,-300 543.88,-312 543.88,-312 543.88,-318 537.88,-324 531.88,-324"/>
<text xml:space="preserve" text-anchor="middle" x="502.88" y="-302.12" font-family="sans" font-size="10.00">select_portfolio</text>
</g>
<!-- 13&#45;&gt;15 -->
<g id="edge36" class="edge">
<title>13&#45;&gt;15</title>
<path fill="none" stroke="grey" stroke-width="2" d="M503.62,-359.34C503.53,-352.75 503.42,-345.08 503.31,-337.67"/>
<polygon fill="grey" stroke="grey" stroke-width="2" points="506.82,-337.88 503.17,-327.93 499.82,-337.98 506.82,-337.88"/>
</g>
<!-- 14&#45;&gt;13 -->
<g id="edge33" class="edge">
<title>14&#45;&gt;13</title>
<path fill="none" stroke="grey" stroke-width="2" d="M534.53,-431.34C530.38,-424.26 525.5,-415.92 520.86,-408"/>
<polygon fill="grey" stroke="grey" stroke-width="2" points="523.96,-406.37 515.89,-399.51 517.92,-409.91 523.96,-406.37"/>
</g>
<!-- 15&#45;&gt;0 -->
<g id="edge2" class="edge">
<title>15&#45;&gt;0</title>
<path fill="none" stroke="grey" stroke-width="2" d="M503.81,-287.24C505.21,-246.75 504.47,-145.4 467.88,-72 463.09,-62.4 455.93,-53.45 448.43,-45.73"/>
<polygon fill="grey" stroke="grey" stroke-width="2" points="451.1,-43.44 441.45,-39.06 446.27,-48.5 451.1,-43.44"/>
</g>
<!-- 15&#45;&gt;16 -->
<g id="edge39" class="edge">
<title>15&#45;&gt;16</title>
<path fill="none" stroke="grey" stroke-width="2" d="M462.85,-287.15C443.09,-278.34 419.01,-267.61 397.84,-258.17"/>
<polygon fill="grey" stroke="grey" stroke-width="2" points="399.42,-255.04 388.86,-254.17 396.57,-261.44 399.42,-255.04"/>
</g>
<!-- 16&#45;&gt;0 -->
<g id="edge6" class="edge">
<title>16&#45;&gt;0</title>
<path fill="none" stroke="grey" stroke-width="2" d="M320.56,-215.06C309.88,-205.92 298.6,-193.83 292.88,-180 274.22,-134.97 281.28,-109.94 311.88,-72 328.04,-51.96 353.78,-38.75 375.61,-30.54"/>
<polygon fill="grey" stroke="grey" stroke-width="2" points="376.75,-33.85 385.04,-27.26 374.45,-27.24 376.75,-33.85"/>
</g>
<!-- 18 -->
<g id="node19" class="node">
<title>18</title>
<path fill="none" stroke="#56d0d8" stroke-width="2" d="M377.88,-180C377.88,-180 313.88,-180 313.88,-180 307.88,-180 301.88,-174 301.88,-168 301.88,-168 301.88,-156 301.88,-156 301.88,-150 307.88,-144 313.88,-144 313.88,-144 377.88,-144 377.88,-144 383.88,-144 389.88,-150 389.88,-156 389.88,-156 389.88,-168 389.88,-168 389.88,-174 383.88,-180 377.88,-180"/>
<text xml:space="preserve" text-anchor="middle" x="345.88" y="-158.12" font-family="sans" font-size="10.00">submit_to_portal</text>
</g>
<!-- 16&#45;&gt;18 -->
<g id="edge41" class="edge">
<title>16&#45;&gt;18</title>
<path fill="none" stroke="grey" stroke-width="2" d="M345.88,-215.34C345.88,-208.75 345.88,-201.08 345.88,-193.67"/>
<polygon fill="grey" stroke="grey" stroke-width="2" points="349.38,-193.93 345.88,-183.93 342.38,-193.93 349.38,-193.93"/>
</g>
<!-- 17 -->
<g id="node18" class="node">
<title>17</title>
<path fill="none" stroke="#d86e56" stroke-width="2" d="M413.62,-108C413.62,-108 342.12,-108 342.12,-108 336.12,-108 330.12,-102 330.12,-96 330.12,-96 330.12,-84 330.12,-84 330.12,-78 336.12,-72 342.12,-72 342.12,-72 413.62,-72 413.62,-72 419.62,-72 425.62,-78 425.62,-84 425.62,-84 425.62,-96 425.62,-96 425.62,-102 419.62,-108 413.62,-108"/>
<text xml:space="preserve" text-anchor="middle" x="377.88" y="-86.12" font-family="sans" font-size="10.00">archive_score_run</text>
</g>
<!-- 17&#45;&gt;0 -->
<g id="edge1" class="edge">
<title>17&#45;&gt;0</title>
<path fill="none" stroke="grey" stroke-width="2" d="M387.46,-71.34C391.26,-64.34 395.73,-56.12 399.98,-48.28"/>
<polygon fill="grey" stroke="grey" stroke-width="2" points="403.02,-50.02 404.71,-39.56 396.87,-46.68 403.02,-50.02"/>
</g>
<!-- 18&#45;&gt;0 -->
<g id="edge9" class="edge">
<title>18&#45;&gt;0</title>
<path fill="none" stroke="grey" stroke-width="2" d="M333.13,-143.23C321.39,-124.47 307.63,-94.56 320.88,-72 332.75,-51.77 355.47,-38.69 375.71,-30.59"/>
<polygon fill="grey" stroke="grey" stroke-width="2" points="376.83,-33.91 385.03,-27.2 374.44,-27.33 376.83,-33.91"/>
</g>
<!-- 18&#45;&gt;17 -->
<g id="edge40" class="edge">
<title>18&#45;&gt;17</title>
<path fill="none" stroke="grey" stroke-width="2" d="M353.95,-143.34C357.11,-136.43 360.82,-128.31 364.36,-120.56"/>
<polygon fill="grey" stroke="grey" stroke-width="2" points="367.46,-122.2 368.43,-111.65 361.09,-119.29 367.46,-122.2"/>
</g>
<!-- 19 -->
<g id="node20" class="node">
<title>19</title>
<path fill="none" stroke="#d8bc56" stroke-width="2" d="M844.12,-108C844.12,-108 757.62,-108 757.62,-108 751.62,-108 745.62,-102 745.62,-96 745.62,-96 745.62,-84 745.62,-84 745.62,-78 751.62,-72 757.62,-72 757.62,-72 844.12,-72 844.12,-72 850.12,-72 856.12,-78 856.12,-84 856.12,-84 856.12,-96 856.12,-96 856.12,-102 850.12,-108 844.12,-108"/>
<text xml:space="preserve" text-anchor="middle" x="800.88" y="-86.12" font-family="sans" font-size="10.00">copy_best_online_run</text>
</g>
<!-- 19&#45;&gt;0 -->
<g id="edge8" class="edge">
<title>19&#45;&gt;0</title>
<path fill="none" stroke="grey" stroke-width="2" d="M744.85,-74.82C740.47,-73.83 736.1,-72.87 731.88,-72 633.37,-51.63 516.36,-33.6 456.14,-24.76"/>
<polygon fill="grey" stroke="grey" stroke-width="2" points="456.88,-21.33 446.47,-23.35 455.87,-28.26 456.88,-21.33"/>
</g>
</g>
</svg>
